<?xml version="1.0" encoding="UTF-8" standalone="no"?>
<svg
   xmlns:dc="http://purl.org/dc/elements/1.1/"
   xmlns:cc="http://creativecommons.org/ns#"
   xmlns:rdf="http://www.w3.org/1999/02/22-rdf-syntax-ns#"
   xmlns:svg="http://www.w3.org/2000/svg"
   xmlns="http://www.w3.org/2000/svg"
   xmlns:sodipodi="http://sodipodi.sourceforge.net/DTD/sodipodi-0.dtd"
   xmlns:inkscape="http://www.inkscape.org/namespaces/inkscape"
   width="24"
   height="24"
   viewBox="0 0 24 24"
   version="1.1"
   id="svg6"
   sodipodi:docname="main_sync_icon.svg"
   inkscape:version="0.92.3 (unknown)">
  <metadata
     id="metadata12">
    <rdf:RDF>
      <cc:Work
         rdf:about="">
        <dc:format>image/svg+xml</dc:format>
        <dc:type
           rdf:resource="http://purl.org/dc/dcmitype/StillImage" />
      </cc:Work>
    </rdf:RDF>
  </metadata>
  <defs
     id="defs10" />
  <sodipodi:namedview
     pagecolor="#ffffff"
     bordercolor="#666666"
     borderopacity="1"
     objecttolerance="10"
     gridtolerance="10"
     guidetolerance="10"
     inkscape:pageopacity="0"
     inkscape:pageshadow="2"
     inkscape:window-width="640"
     inkscape:window-height="480"
     id="namedview8"
     showgrid="false"
     inkscape:zoom="10.871767"
     inkscape:cx="37.867519"
     inkscape:cy="17.631345"
     inkscape:current-layer="svg6" />
  <path
     d="M 12,4 V 1 L 8,5 l 4,4 V 6 c 3.31,0 6,2.69 6,6 c 0,1.01 -0.25,1.97 -0.7,2.8 l 1.46,1.46 C 19.54,15.03 20,13.57 20,12 C 20,7.58 16.42,4 12,4 Z"
     id="path824" />
  <path
     d="M 12,18 C 8.69,18 6,15.31 6,12 C 6,10.99 6.25,10.03 6.7,9.2 L 5.24,7.74 C 4.46,8.97 4,10.43 4,12 c 0,4.42 3.58,8 8,8 v 3 l 4,-4 l -4,-4 z"
     id="path2" />
  <path
     d="M0 0h24v24H0z"
     fill="none"
     id="path4" />
</svg>
