<?xml version="1.0" encoding="UTF-8" standalone="no"?>
<svg
   xmlns:dc="http://purl.org/dc/elements/1.1/"
   xmlns:cc="http://creativecommons.org/ns#"
   xmlns:rdf="http://www.w3.org/1999/02/22-rdf-syntax-ns#"
   xmlns:svg="http://www.w3.org/2000/svg"
   xmlns="http://www.w3.org/2000/svg"
   xmlns:sodipodi="http://sodipodi.sourceforge.net/DTD/sodipodi-0.dtd"
   xmlns:inkscape="http://www.inkscape.org/namespaces/inkscape"
   version="1.1"
   id="svg5728"
   viewBox="0 0 105.875 76.737489"
   height="76.737488"
   width="105.875"
   inkscape:version="0.91 r13725"
   sodipodi:docname="register_address_id_sample.svg">
  <sodipodi:namedview
     pagecolor="#ffffff"
     bordercolor="#666666"
     borderopacity="1"
     objecttolerance="10"
     gridtolerance="10"
     guidetolerance="10"
     inkscape:pageopacity="0"
     inkscape:pageshadow="2"
     inkscape:window-width="1865"
     inkscape:window-height="1056"
     id="namedview7"
     showgrid="false"
     inkscape:zoom="8.6986012"
     inkscape:cx="61.980943"
     inkscape:cy="38.771944"
     inkscape:window-x="55"
     inkscape:window-y="24"
     inkscape:window-maximized="1"
     inkscape:current-layer="svg5728" />
  <defs
     id="defs5730" />
  <metadata
     id="metadata5733">
    <rdf:RDF>
      <cc:Work
         rdf:about="">
        <dc:format>image/svg+xml</dc:format>
        <dc:type
           rdf:resource="http://purl.org/dc/dcmitype/StillImage" />
        <dc:title></dc:title>
      </cc:Work>
    </rdf:RDF>
  </metadata>
  <path
     style="fill:#848484;fill-opacity:1;fill-rule:nonzero;stroke:none"
     d="M 12.207031 3.3691406 C 8.0451221 3.3691406 4.6484375 6.765826 4.6484375 10.927734 L 4.6484375 65.808594 C 4.6484375 69.959094 8.0451221 73.369141 12.207031 73.369141 L 93.65625 73.369141 C 97.81703 73.369141 101.22656 69.959094 101.22656 65.808594 L 101.22656 10.927734 C 101.22656 6.765826 97.81703 3.3691406 93.65625 3.3691406 L 12.207031 3.3691406 z M 52.640625 22.71875 L 91.900391 22.71875 C 93.223081 22.71875 94.283203 23.790263 94.283203 25.101562 C 94.283203 25.762863 94.021181 26.355763 93.587891 26.789062 C 93.154591 27.222262 92.561731 27.484375 91.900391 27.484375 L 52.640625 27.484375 C 51.329345 27.484375 50.257813 26.412933 50.257812 25.101562 C 50.257812 24.440162 50.519835 23.847364 50.953125 23.414062 C 51.386425 22.980763 51.979285 22.71875 52.640625 22.71875 z M 28.433594 23.253906 C 32.013974 23.253906 34.888672 26.150069 34.888672 29.730469 C 34.888672 33.310869 32.013974 36.207031 28.433594 36.207031 C 24.853204 36.207031 21.958984 33.310869 21.958984 29.730469 C 21.958984 26.150069 24.853204 23.253906 28.433594 23.253906 z M 52.640625 35.992188 L 91.900391 35.992188 C 93.223081 35.992188 94.283203 37.051981 94.283203 38.363281 C 94.283203 39.024581 94.021181 39.617481 93.587891 40.050781 C 93.154591 40.484081 92.561731 40.746094 91.900391 40.746094 L 52.640625 40.746094 C 51.329345 40.746094 50.257813 39.685981 50.257812 38.363281 C 50.257812 37.713381 50.519835 37.1208 50.953125 36.6875 C 51.386425 36.2542 51.979285 35.992187 52.640625 35.992188 z M 28.433594 40.529297 C 33.463234 40.529297 43.541016 43.049625 43.541016 48.078125 L 43.541016 53.470703 L 13.324219 53.470703 L 13.324219 48.078125 C 13.324219 43.049625 23.405084 40.529297 28.433594 40.529297 z M 52.640625 49.251953 L 83.736328 49.251953 C 85.047618 49.251953 86.107422 50.312066 86.107422 51.634766 C 86.107422 52.284766 85.845399 52.8792 85.412109 53.3125 C 84.978809 53.7458 84.387408 54.007813 83.736328 54.007812 L 52.640625 54.007812 C 51.329345 54.007812 50.257813 52.946066 50.257812 51.634766 C 50.257812 50.973466 50.519835 50.380566 50.953125 49.947266 C 51.386425 49.513966 51.979285 49.251953 52.640625 49.251953 z "
     id="path5717" />
</svg>
