<?xml version="1.0" encoding="UTF-8" standalone="no"?>
<svg
   xmlns:dc="http://purl.org/dc/elements/1.1/"
   xmlns:cc="http://creativecommons.org/ns#"
   xmlns:rdf="http://www.w3.org/1999/02/22-rdf-syntax-ns#"
   xmlns:svg="http://www.w3.org/2000/svg"
   xmlns="http://www.w3.org/2000/svg"
   version="1.1"
   id="svg5081"
   viewBox="0 0 89.999999 89.999999"
   height="90"
   width="90">
  <defs
     id="defs5083" />
  <metadata
     id="metadata5086">
    <rdf:RDF>
      <cc:Work
         rdf:about="">
        <dc:format>image/svg+xml</dc:format>
        <dc:type
           rdf:resource="http://purl.org/dc/dcmitype/StillImage" />
        <dc:title></dc:title>
      </cc:Work>
    </rdf:RDF>
  </metadata>
  <g
     transform="translate(0,-962.36222)"
     id="layer1">
    <path
       id="path5070"
       style="fill:#848484;fill-opacity:1;fill-rule:nonzero;stroke:none"
       d="m 45.023243,976.62234 c -7.296351,-0.0132 -13.220889,5.92814 -13.189743,13.22928 0.02987,7.14419 5.815518,12.99798 12.952528,13.10348 7.284369,0.1076 13.320332,-5.77718 13.380228,-13.04957 0.05996,-7.29276 -5.855053,-13.27001 -13.143013,-13.28319 m -0.86502,62.33286 c 9.711698,-0.047 17.343509,-3.3091 23.614302,-9.7128 4.660548,-4.76 4.323891,-7.7085 -1.222049,-11.6407 -0.791944,-0.5619 -1.627005,-1.0818 -2.496812,-1.512 -12.76323,-6.3031 -25.53363,-6.2816 -38.272897,0.058 -2.196088,1.0927 -4.148977,2.5388 -5.642988,4.542 -1.662939,2.2296 -1.795932,4.1993 0.185708,6.5056 6.492424,7.554 14.579522,11.5651 23.834736,11.7593 M 1.0714245,1007.3245 c 0.014387,-24.28162 19.7324875,-43.93145 44.0464735,-43.89072 24.249279,0.0408 43.889516,19.82595 43.810445,44.13752 -0.07666,24.0768 -19.768443,43.6991 -43.873944,43.7194 -24.285224,0.021 -43.994956,-19.6809 -43.9829745,-43.9662" />
  </g>
</svg>
