<?xml version="1.0" encoding="UTF-8" standalone="no"?>
<!-- Created with Inkscape (http://www.inkscape.org/) -->

<svg
   xmlns:dc="http://purl.org/dc/elements/1.1/"
   xmlns:cc="http://creativecommons.org/ns#"
   xmlns:rdf="http://www.w3.org/1999/02/22-rdf-syntax-ns#"
   xmlns:svg="http://www.w3.org/2000/svg"
   xmlns="http://www.w3.org/2000/svg"
   xmlns:sodipodi="http://sodipodi.sourceforge.net/DTD/sodipodi-0.dtd"
   xmlns:inkscape="http://www.inkscape.org/namespaces/inkscape"
   id="svg2"
   version="1.1"
   inkscape:version="0.91 r13725"
   xml:space="preserve"
   width="1280"
   height="960"
   viewBox="0 0 1280 960"
   sodipodi:docname="01_splash.svg"><metadata
     id="metadata8"><rdf:RDF><cc:Work
         rdf:about=""><dc:format>image/svg+xml</dc:format><dc:type
           rdf:resource="http://purl.org/dc/dcmitype/StillImage" /><dc:title></dc:title></cc:Work></rdf:RDF></metadata><defs
     id="defs6"><clipPath
       clipPathUnits="userSpaceOnUse"
       id="clipPath16"><path
         d="M 0.502,0 1024,0 l 0,768 -1023.498,0 0,-768 z"
         id="path18"
         inkscape:connector-curvature="0" /></clipPath><clipPath
       clipPathUnits="userSpaceOnUse"
       id="clipPath30"><path
         d="M 0,768 1024,768 1024,0 0,0 0,768 Z"
         id="path32"
         inkscape:connector-curvature="0" /></clipPath><clipPath
       clipPathUnits="userSpaceOnUse"
       id="clipPath38"><path
         d="m 785.918,256.521 256.842,0 0,-285.3126 -256.842,0 0,285.3126 z"
         id="path40"
         inkscape:connector-curvature="0" /></clipPath></defs><sodipodi:namedview
     pagecolor="#ffffff"
     bordercolor="#666666"
     borderopacity="1"
     objecttolerance="10"
     gridtolerance="10"
     guidetolerance="10"
     inkscape:pageopacity="0"
     inkscape:pageshadow="2"
     inkscape:window-width="1865"
     inkscape:window-height="1056"
     id="namedview4"
     showgrid="false"
     inkscape:zoom="0.49166667"
     inkscape:cx="68.876763"
     inkscape:cy="224.87065"
     inkscape:window-x="55"
     inkscape:window-y="24"
     inkscape:window-maximized="1"
     inkscape:current-layer="g10" /><g
     id="g10"
     inkscape:groupmode="layer"
     inkscape:label="00_Splash"
     transform="matrix(1.25,0,0,-1.25,0,960)"><g
       id="g34"><g
         id="g36" /><g
         id="g42"><g
           clip-path="url(#clipPath38)"
           id="g44"
           style="opacity:0.69999701"><g
             transform="translate(785.9443,126.208)"
             id="g46"><path
               d="m 0,0 c 0.033,23.993 0.067,47.985 0.101,71.979 11.021,41.115 50.221,55.958 100.852,58.094 37.109,1.569 72.912,-4.799 108.56,-12.049 11.58,-2.354 12.758,-5.411 5.867,-12.18 -3.622,-3.56 -5.562,-7.745 -4.041,-12.441 -2.361,-3.853 -4.938,-7.582 -9.589,-10.16 -11.237,-7.009 -15.244,-18.558 -26.892,-25.312 -1.679,0.257 -3.029,0.922 -4.122,1.919 C 149.019,84.91 104.904,90.849 76.678,72.478 69.145,65.604 58.72,60.263 55.868,49.479 c 29.828,3.999 55.471,-0.337 75.842,-17.465 30.67,-29.823 27.141,-60.058 1.877,-90.563 -16.567,-8.865 -34.401,-15.533 -54.439,-18.327 -1.131,-0.055 -2.282,-0.083 -3.41,0.041 -25.569,2.833 -25.432,2.833 -25.675,-17.836 -0.082,-6.951 1.583,-14.107 -2.707,-20.766 -0.624,-0.464 -1.258,-0.921 -1.892,-1.378 C 20.411,-105.784 -3.264,-95.258 0.338,-67.362 3.206,-45.135 0.327,-22.469 0,0"
               style="fill:#179ae6;fill-opacity:1;fill-rule:evenodd;stroke:none"
               id="path48"
               inkscape:connector-curvature="0" /></g><g
             transform="translate(917.1934,68.9395)"
             id="g50"><path
               d="m 0,0 c 0.239,10.262 11.835,16.527 14.854,26.313 7.32,23.718 -1.267,43.933 -18.03,63.165 7.208,14.099 24.612,15.525 40.249,19.16 7.384,0.278 15.024,1.116 22.061,-0.665 14.361,-3.638 16.857,1.971 16.26,11.054 -0.345,5.235 -0.153,10.495 0.016,15.741 0.154,4.803 -0.03,9.704 4.673,13.595 18.831,-7.76 38.501,-14.832 45.331,-32.483 0.051,-50.53 0.104,-101.064 0.153,-151.595 -8.182,-47.141 -63.72,-64.96 -116.836,-61.626 -31.138,1.953 -62.304,4.563 -92.242,13.03 -12.2,3.452 -12.606,6.798 -5.918,13.594 3.261,3.313 4.784,6.992 3.644,11.17 l -0.107,-0.249 c 6.196,10.449 13.05,20.646 21.246,30.24 3.967,4.646 7.719,10.447 17.482,7.962 15.905,-17.717 36.846,-26.87 65.832,-24.691 23.743,1.783 38.199,12.188 50.472,27.844 -9.702,2.833 -18.115,-0.06 -26.244,0.693 C 25.535,-16.136 8.845,-13.711 0,0"
               style="fill:#037d79;fill-opacity:1;fill-rule:evenodd;stroke:none"
               id="path52"
               inkscape:connector-curvature="0" /></g></g></g></g><g
       id="g4516"
       transform="translate(-0.5024328,-38.821253)"><g
         transform="translate(384.3237,426.3784)"
         id="g54"><path
           inkscape:connector-curvature="0"
           id="path56"
           style="fill:#017c77;fill-opacity:1;fill-rule:nonzero;stroke:none"
           d="m 0,0 c 0.917,-0.162 2.264,-0.215 3.934,-0.215 4.852,0 9.326,1.778 9.326,7.061 0,4.959 -4.259,7.008 -9.379,7.008 L 0,13.854 0,0 Z m 0,17.411 4.258,0 c 4.959,0 7.87,2.587 7.87,6.091 0,4.258 -3.234,5.929 -7.978,5.929 C 1.994,29.431 0.755,29.27 0,29.108 L 0,17.411 Z m -4.69,14.877 c 2.048,0.431 5.283,0.754 8.571,0.754 4.689,0 7.708,-0.808 9.972,-2.641 1.886,-1.401 3.018,-3.558 3.018,-6.414 0,-3.504 -2.317,-6.576 -6.145,-7.978 l 0,-0.107 c 3.45,-0.862 7.493,-3.72 7.493,-9.11 0,-3.126 -1.24,-5.498 -3.073,-7.276 -2.533,-2.318 -6.629,-3.397 -12.559,-3.397 -3.234,0 -5.713,0.216 -7.277,0.431 l 0,35.738 z" /></g><g
         transform="translate(430.5215,429.936)"
         id="g58"><path
           inkscape:connector-curvature="0"
           id="path60"
           style="fill:#017c77;fill-opacity:1;fill-rule:nonzero;stroke:none"
           d="m 0,0 c 0,-2.695 0.054,-5.066 0.215,-7.115 l -4.204,0 -0.27,4.258 -0.107,0 c -1.239,-2.102 -3.989,-4.851 -8.625,-4.851 -4.096,0 -9.001,2.264 -9.001,11.428 l 0,15.254 4.743,0 0,-14.446 c 0,-4.959 1.509,-8.301 5.821,-8.301 3.181,0 5.391,2.21 6.254,4.313 0.269,0.7 0.431,1.563 0.431,2.425 l 0,16.009 4.743,0 L 0,0 Z" /></g><g
         transform="translate(460.2256,429.936)"
         id="g62"><path
           inkscape:connector-curvature="0"
           id="path64"
           style="fill:#017c77;fill-opacity:1;fill-rule:nonzero;stroke:none"
           d="m 0,0 c 0,-2.695 0.054,-5.066 0.215,-7.115 l -4.203,0 -0.271,4.258 -0.107,0 c -1.239,-2.102 -3.989,-4.851 -8.625,-4.851 -4.096,0 -9.001,2.264 -9.001,11.428 l 0,15.254 4.743,0 0,-14.446 c 0,-4.959 1.509,-8.301 5.821,-8.301 3.181,0 5.391,2.21 6.254,4.313 0.269,0.7 0.431,1.563 0.431,2.425 l 0,16.009 4.743,0 L 0,0 Z" /></g><g
         transform="translate(467.4521,427.6724)"
         id="g66"><path
           inkscape:connector-curvature="0"
           id="path68"
           style="fill:#017c77;fill-opacity:1;fill-rule:nonzero;stroke:none"
           d="m 0,0 c 1.401,-0.916 3.881,-1.887 6.253,-1.887 3.45,0 5.066,1.725 5.066,3.881 0,2.265 -1.347,3.504 -4.851,4.798 -4.689,1.67 -6.899,4.258 -6.899,7.385 0,4.203 3.395,7.653 9.002,7.653 2.641,0 4.959,-0.754 6.414,-1.616 l -1.186,-3.45 c -1.024,0.647 -2.911,1.509 -5.337,1.509 -2.802,0 -4.365,-1.617 -4.365,-3.558 0,-2.155 1.563,-3.126 4.959,-4.419 4.528,-1.725 6.845,-3.99 6.845,-7.871 0,-4.581 -3.557,-7.815 -9.756,-7.815 -2.857,0 -5.498,0.701 -7.331,1.778 L 0,0 Z" /></g><g
         transform="translate(503.1924,436.1348)"
         id="g70"><path
           inkscape:connector-curvature="0"
           id="path72"
           style="fill:#017c77;fill-opacity:1;fill-rule:nonzero;stroke:none"
           d="m 0,0 c -5.174,0.108 -11.05,-0.808 -11.05,-5.875 0,-3.072 2.049,-4.528 4.474,-4.528 3.396,0 5.552,2.156 6.306,4.366 0.163,0.485 0.27,1.024 0.27,1.51 L 0,0 Z m 0.701,-13.313 -0.377,3.287 -0.162,0 c -1.455,-2.048 -4.259,-3.881 -7.978,-3.881 -5.282,0 -7.977,3.719 -7.977,7.493 0,6.307 5.605,9.756 15.686,9.702 l 0,0.54 c 0,2.156 -0.594,6.037 -5.93,6.037 -2.425,0 -4.96,-0.755 -6.792,-1.941 l -1.078,3.126 c 2.157,1.402 5.282,2.318 8.571,2.318 7.978,0 9.918,-5.444 9.918,-10.672 l 0,-9.758 c 0,-2.263 0.107,-4.473 0.431,-6.251 l -4.312,0 z" /></g><g
         transform="translate(529.1758,436.1348)"
         id="g74"><path
           inkscape:connector-curvature="0"
           id="path76"
           style="fill:#017c77;fill-opacity:1;fill-rule:nonzero;stroke:none"
           d="m 0,0 c -5.175,0.108 -11.049,-0.808 -11.049,-5.875 0,-3.072 2.049,-4.528 4.473,-4.528 3.396,0 5.554,2.156 6.307,4.366 C -0.106,-5.552 0,-5.013 0,-4.527 L 0,0 Z m 0.702,-13.313 -0.379,3.287 -0.161,0 c -1.455,-2.048 -4.258,-3.881 -7.977,-3.881 -5.283,0 -7.978,3.719 -7.978,7.493 0,6.307 5.607,9.756 15.687,9.702 l 0,0.54 c 0,2.156 -0.594,6.037 -5.929,6.037 -2.426,0 -4.96,-0.755 -6.793,-1.941 l -1.078,3.126 c 2.157,1.402 5.283,2.318 8.571,2.318 7.978,0 9.917,-5.444 9.917,-10.672 l 0,-9.758 c 0,-2.263 0.108,-4.473 0.433,-6.251 l -4.313,0 z" /></g><g
         transform="translate(580.6582,424.4385)"
         id="g78"><path
           inkscape:connector-curvature="0"
           id="path80"
           style="fill:#017c77;fill-opacity:1;fill-rule:nonzero;stroke:none"
           d="m 0,0 c -2.102,-0.755 -6.252,-1.994 -11.158,-1.994 -5.496,0 -10.026,1.401 -13.582,4.796 -3.128,3.019 -5.069,7.87 -5.069,13.53 0.056,10.835 7.495,18.759 19.675,18.759 4.205,0 7.493,-0.917 9.057,-1.672 L -2.21,29.592 c -1.94,0.863 -4.365,1.563 -8.03,1.563 -8.842,0 -14.609,-5.498 -14.609,-14.607 0,-9.217 5.552,-14.661 14.015,-14.661 3.072,0 5.174,0.431 6.254,0.969 l 0,10.835 -7.386,0 0,3.773 L 0,17.464 0,0 Z" /></g><g
         transform="translate(590.8496,435.812)"
         id="g82"><path
           inkscape:connector-curvature="0"
           id="path84"
           style="fill:#017c77;fill-opacity:1;fill-rule:nonzero;stroke:none"
           d="m 0,0 c 0,-5.714 3.287,-10.026 7.923,-10.026 4.528,0 7.924,4.258 7.924,10.133 0,4.42 -2.21,10.026 -7.817,10.026 C 2.425,10.133 0,4.958 0,0 m 20.698,0.27 c 0,-9.649 -6.684,-13.854 -12.992,-13.854 -7.06,0 -12.504,5.175 -12.504,13.422 0,8.732 5.713,13.852 12.937,13.852 7.491,0 12.559,-5.443 12.559,-13.42" /></g><g
         transform="translate(617.5352,441.8491)"
         id="g86"><path
           inkscape:connector-curvature="0"
           id="path88"
           style="fill:#017c77;fill-opacity:1;fill-rule:nonzero;stroke:none"
           d="m 0,0 c 0,2.695 -0.054,4.905 -0.216,7.061 l 4.204,0 0.269,-4.313 0.108,0 c 1.294,2.48 4.313,4.905 8.624,4.905 3.613,0 9.219,-2.155 9.219,-11.103 l 0,-15.578 -4.744,0 0,15.039 c 0,4.204 -1.564,7.708 -6.037,7.708 -3.126,0 -5.552,-2.21 -6.362,-4.851 -0.214,-0.593 -0.323,-1.402 -0.323,-2.21 l 0,-15.686 -4.742,0 L 0,0 Z" /></g><g
         transform="translate(650.3652,435.812)"
         id="g90"><path
           inkscape:connector-curvature="0"
           id="path92"
           style="fill:#017c77;fill-opacity:1;fill-rule:nonzero;stroke:none"
           d="m 0,0 c 0,-5.714 3.288,-10.026 7.924,-10.026 4.527,0 7.924,4.258 7.924,10.133 0,4.42 -2.21,10.026 -7.817,10.026 C 2.426,10.133 0,4.958 0,0 m 20.699,0.27 c 0,-9.649 -6.684,-13.854 -12.992,-13.854 -7.061,0 -12.504,5.175 -12.504,13.422 0,8.732 5.713,13.852 12.937,13.852 7.491,0 12.559,-5.443 12.559,-13.42" /></g><g
         transform="translate(677.5371,422.8213)"
         id="g94"><path
           inkscape:connector-curvature="0"
           id="path96"
           style="fill:#017c77;fill-opacity:1;fill-rule:nonzero;stroke:none"
           d="m 0,0 0,22.478 -3.667,0 0,3.61 3.667,0 0,1.241 c 0,3.665 0.807,7.006 3.018,9.109 1.778,1.725 4.15,2.426 6.36,2.426 1.672,0 3.126,-0.378 4.042,-0.755 l -0.646,-3.666 c -0.701,0.324 -1.671,0.593 -3.019,0.593 -4.042,0 -5.067,-3.557 -5.067,-7.546 l 0,-1.402 6.306,0 0,-3.61 -6.306,0 L 4.688,0 0,0 Z" /></g><g
         transform="translate(706.5381,436.1348)"
         id="g98"><path
           inkscape:connector-curvature="0"
           id="path100"
           style="fill:#017c77;fill-opacity:1;fill-rule:nonzero;stroke:none"
           d="m 0,0 c -5.175,0.108 -11.052,-0.808 -11.052,-5.875 0,-3.072 2.048,-4.528 4.474,-4.528 3.396,0 5.554,2.156 6.307,4.366 C -0.108,-5.552 0,-5.013 0,-4.527 L 0,0 Z m 0.7,-13.313 -0.379,3.287 -0.161,0 c -1.455,-2.048 -4.258,-3.881 -7.977,-3.881 -5.282,0 -7.978,3.719 -7.978,7.493 0,6.307 5.606,9.756 15.687,9.702 l 0,0.54 c 0,2.156 -0.595,6.037 -5.931,6.037 -2.426,0 -4.958,-0.755 -6.791,-1.941 l -1.078,3.126 c 2.155,1.402 5.283,2.318 8.571,2.318 7.978,0 9.917,-5.444 9.917,-10.672 l 0,-9.758 c 0,-2.263 0.108,-4.473 0.433,-6.251 l -4.313,0 z" /></g><g
         transform="translate(732.5205,436.1348)"
         id="g102"><path
           inkscape:connector-curvature="0"
           id="path104"
           style="fill:#017c77;fill-opacity:1;fill-rule:nonzero;stroke:none"
           d="m 0,0 c -5.174,0.108 -11.05,-0.808 -11.05,-5.875 0,-3.072 2.049,-4.528 4.475,-4.528 3.396,0 5.553,2.156 6.306,4.366 C -0.106,-5.552 0,-5.013 0,-4.527 L 0,0 Z m 0.702,-13.313 -0.378,3.287 -0.162,0 c -1.454,-2.048 -4.257,-3.881 -7.977,-3.881 -5.282,0 -7.977,3.719 -7.977,7.493 0,6.307 5.604,9.756 15.686,9.702 l 0,0.54 c 0,2.156 -0.594,6.037 -5.929,6.037 -2.427,0 -4.959,-0.755 -6.793,-1.941 l -1.077,3.126 c 2.155,1.402 5.281,2.318 8.571,2.318 7.977,0 9.917,-5.444 9.917,-10.672 l 0,-9.758 c 0,-2.263 0.108,-4.473 0.432,-6.251 l -4.313,0 z" /></g><g
         transform="translate(440.4243,404.9463)"
         id="g106"><path
           inkscape:connector-curvature="0"
           id="path108"
           style="fill:#047f7a;fill-opacity:1;fill-rule:nonzero;stroke:none"
           d="m 0,0 c -0.108,2.027 -0.238,4.464 -0.216,6.275 l -0.065,0 C -0.776,4.572 -1.38,2.76 -2.114,0.755 l -2.566,-7.052 -1.424,0 -2.351,6.922 c -0.69,2.049 -1.271,3.926 -1.681,5.65 l -0.043,0 c -0.043,-1.811 -0.152,-4.248 -0.281,-6.426 l -0.388,-6.232 -1.79,0 1.014,14.535 2.394,0 2.48,-7.031 c 0.604,-1.789 1.1,-3.386 1.466,-4.895 l 0.065,0 c 0.366,1.466 0.884,3.063 1.531,4.895 l 2.588,7.031 2.394,0 0.906,-14.535 -1.833,0 L 0,0 Z" /></g><path
         inkscape:connector-curvature="0"
         id="path110"
         style="fill:#047f7a;fill-opacity:1;fill-rule:nonzero;stroke:none"
         d="m 445.706,409.001 1.898,0 0,-10.438 -1.898,0 0,10.438 z m 2.113,2.933 c 0.022,-0.647 -0.453,-1.165 -1.208,-1.165 -0.668,0 -1.142,0.518 -1.142,1.165 0,0.668 0.496,1.186 1.186,1.186 0.711,0 1.164,-0.518 1.164,-1.186" /><g
         transform="translate(458.1919,398.9512)"
         id="g112"><path
           inkscape:connector-curvature="0"
           id="path114"
           style="fill:#047f7a;fill-opacity:1;fill-rule:nonzero;stroke:none"
           d="m 0,0 c -0.496,-0.259 -1.596,-0.604 -2.998,-0.604 -3.148,0 -5.197,2.135 -5.197,5.327 0,3.213 2.2,5.542 5.608,5.542 1.121,0 2.113,-0.28 2.63,-0.539 L -0.388,8.259 c -0.453,0.26 -1.165,0.496 -2.199,0.496 -2.394,0 -3.689,-1.768 -3.689,-3.946 0,-2.415 1.553,-3.904 3.624,-3.904 1.077,0 1.79,0.281 2.328,0.518 L 0,0 Z" /></g><g
         transform="translate(460.4116,405.7446)"
         id="g116"><path
           inkscape:connector-curvature="0"
           id="path118"
           style="fill:#047f7a;fill-opacity:1;fill-rule:nonzero;stroke:none"
           d="m 0,0 c 0,1.229 -0.021,2.286 -0.086,3.256 l 1.661,0 0.064,-2.049 0.086,0 c 0.475,1.402 1.618,2.287 2.89,2.287 0.216,0 0.367,-0.022 0.54,-0.065 l 0,-1.791 C 4.96,1.682 4.766,1.703 4.507,1.703 3.17,1.703 2.222,0.69 1.963,-0.734 1.919,-0.993 1.876,-1.294 1.876,-1.618 l 0,-5.564 L 0,-7.182 0,0 Z" /></g><g
         transform="translate(468.4126,403.7603)"
         id="g120"><path
           inkscape:connector-curvature="0"
           id="path122"
           style="fill:#047f7a;fill-opacity:1;fill-rule:nonzero;stroke:none"
           d="m 0,0 c 0,-2.286 1.315,-4.011 3.17,-4.011 1.812,0 3.17,1.703 3.17,4.053 0,1.769 -0.884,4.013 -3.127,4.013 C 0.971,4.055 0,1.984 0,0 m 8.281,0.107 c 0,-3.859 -2.674,-5.542 -5.197,-5.542 -2.825,0 -5.003,2.071 -5.003,5.37 0,3.494 2.285,5.543 5.175,5.543 2.998,0 5.025,-2.178 5.025,-5.371" /></g><g
         transform="translate(479.2803,398.563)"
         id="g124"><path
           inkscape:connector-curvature="0"
           id="path126"
           style="fill:#047f7a;fill-opacity:1;fill-rule:nonzero;stroke:none"
           d="m 0,0 0,8.993 -1.467,0 0,1.445 1.467,0 0,0.561 c 0,2.76 1.617,4.55 4.55,4.55 0.971,0 2.114,-0.302 2.653,-0.69 L 6.664,13.414 c -0.453,0.323 -1.272,0.604 -2.2,0.604 -2.005,0 -2.588,-1.402 -2.588,-3.063 l 0,-0.517 6.06,0 0,-10.438 -1.876,0 0,8.993 -4.184,0 L 1.876,0 0,0 Z" /></g><g
         transform="translate(490.3643,406.1758)"
         id="g128"><path
           inkscape:connector-curvature="0"
           id="path130"
           style="fill:#047f7a;fill-opacity:1;fill-rule:nonzero;stroke:none"
           d="m 0,0 c 0,1.078 -0.022,1.962 -0.086,2.825 l 1.681,0 0.109,-1.725 0.043,0 c 0.518,0.991 1.726,1.963 3.45,1.963 1.445,0 3.688,-0.863 3.688,-4.443 l 0,-6.233 -1.897,0 0,6.017 C 6.988,0.086 6.362,1.488 4.572,1.488 3.321,1.488 2.35,0.604 2.027,-0.453 1.941,-0.69 1.898,-1.014 1.898,-1.337 l 0,-6.276 L 0,-7.613 0,0 Z" /></g><g
         transform="translate(507.8306,403.8896)"
         id="g132"><path
           inkscape:connector-curvature="0"
           id="path134"
           style="fill:#047f7a;fill-opacity:1;fill-rule:nonzero;stroke:none"
           d="m 0,0 c -2.07,0.043 -4.42,-0.324 -4.42,-2.351 0,-1.229 0.819,-1.812 1.789,-1.812 1.36,0 2.222,0.864 2.524,1.748 C -0.042,-2.222 0,-2.006 0,-1.812 L 0,0 Z m 0.281,-5.327 -0.152,1.316 -0.064,0 c -0.582,-0.82 -1.704,-1.553 -3.192,-1.553 -2.113,0 -3.191,1.488 -3.191,2.998 0,2.523 2.242,3.903 6.276,3.881 l 0,0.216 c 0,0.863 -0.238,2.415 -2.373,2.415 -0.971,0 -1.984,-0.301 -2.717,-0.776 l -0.431,1.251 c 0.862,0.561 2.113,0.928 3.428,0.928 3.192,0 3.968,-2.179 3.968,-4.271 l 0,-3.903 c 0,-0.905 0.043,-1.79 0.173,-2.502 l -1.725,0 z" /></g><g
         transform="translate(512.7256,406.1758)"
         id="g136"><path
           inkscape:connector-curvature="0"
           id="path138"
           style="fill:#047f7a;fill-opacity:1;fill-rule:nonzero;stroke:none"
           d="m 0,0 c 0,1.078 -0.022,1.962 -0.087,2.825 l 1.683,0 0.108,-1.725 0.043,0 c 0.518,0.991 1.726,1.963 3.451,1.963 1.445,0 3.688,-0.863 3.688,-4.443 l 0,-6.233 -1.899,0 0,6.017 c 0,1.682 -0.626,3.084 -2.416,3.084 -1.25,0 -2.22,-0.884 -2.544,-1.941 C 1.94,-0.69 1.897,-1.014 1.897,-1.337 l 0,-6.276 L 0,-7.613 0,0 Z" /></g><g
         transform="translate(532.1338,398.9512)"
         id="g140"><path
           inkscape:connector-curvature="0"
           id="path142"
           style="fill:#047f7a;fill-opacity:1;fill-rule:nonzero;stroke:none"
           d="m 0,0 c -0.495,-0.259 -1.596,-0.604 -2.997,-0.604 -3.149,0 -5.199,2.135 -5.199,5.327 0,3.213 2.201,5.542 5.608,5.542 1.122,0 2.113,-0.28 2.632,-0.539 L -0.389,8.259 c -0.453,0.26 -1.163,0.496 -2.199,0.496 -2.394,0 -3.687,-1.768 -3.687,-3.946 0,-2.415 1.551,-3.904 3.623,-3.904 1.078,0 1.79,0.281 2.328,0.518 L 0,0 Z" /></g><g
         transform="translate(540.8457,404.7954)"
         id="g144"><path
           inkscape:connector-curvature="0"
           id="path146"
           style="fill:#047f7a;fill-opacity:1;fill-rule:nonzero;stroke:none"
           d="M 0,0 C 0.021,1.208 -0.497,3.084 -2.631,3.084 -4.552,3.084 -5.392,1.316 -5.544,0 L 0,0 Z m -5.564,-1.359 c 0.043,-2.566 1.682,-3.623 3.58,-3.623 1.357,0 2.178,0.237 2.888,0.539 l 0.324,-1.358 c -0.668,-0.302 -1.811,-0.648 -3.471,-0.648 -3.213,0 -5.134,2.115 -5.134,5.263 0,3.148 1.856,5.629 4.897,5.629 3.407,0 4.313,-2.998 4.313,-4.918 0,-0.388 -0.044,-0.69 -0.064,-0.884 l -7.333,0 z" /></g><g
         transform="translate(549.4053,400.8491)"
         id="g148"><path
           inkscape:connector-curvature="0"
           id="path150"
           style="fill:#047f7a;fill-opacity:1;fill-rule:nonzero;stroke:none"
           d="m 0,0 c 0.841,-0.518 2.071,-0.949 3.364,-0.949 1.919,0 3.04,1.014 3.04,2.48 0,1.359 -0.775,2.135 -2.738,2.889 -2.372,0.842 -3.839,2.071 -3.839,4.12 0,2.264 1.877,3.947 4.702,3.947 1.489,0 2.566,-0.346 3.213,-0.712 L 7.225,10.243 c -0.475,0.259 -1.446,0.691 -2.761,0.691 -1.984,0 -2.739,-1.186 -2.739,-2.179 0,-1.358 0.884,-2.027 2.889,-2.803 2.46,-0.949 3.711,-2.135 3.711,-4.27 0,-2.244 -1.662,-4.184 -5.091,-4.184 -1.401,0 -2.931,0.41 -3.709,0.928 L 0,0 Z" /></g><g
         transform="translate(560.2305,413.8745)"
         id="g152"><path
           inkscape:connector-curvature="0"
           id="path154"
           style="fill:#047f7a;fill-opacity:1;fill-rule:nonzero;stroke:none"
           d="m 0,0 1.897,0 0,-6.513 0.042,0 c 0.303,0.539 0.778,1.014 1.36,1.337 0.561,0.323 1.229,0.54 1.941,0.54 1.402,0 3.645,-0.863 3.645,-4.465 l 0,-6.211 -1.899,0 0,5.995 c 0,1.683 -0.624,3.106 -2.414,3.106 -1.229,0 -2.2,-0.862 -2.545,-1.898 -0.108,-0.259 -0.13,-0.538 -0.13,-0.905 l 0,-6.298 -1.897,0 L 0,0 Z" /></g><g
         transform="translate(577.6992,403.8896)"
         id="g156"><path
           inkscape:connector-curvature="0"
           id="path158"
           style="fill:#047f7a;fill-opacity:1;fill-rule:nonzero;stroke:none"
           d="m 0,0 c -2.071,0.043 -4.423,-0.324 -4.423,-2.351 0,-1.229 0.82,-1.812 1.792,-1.812 1.358,0 2.22,0.864 2.523,1.748 C -0.044,-2.222 0,-2.006 0,-1.812 L 0,0 Z m 0.279,-5.327 -0.15,1.316 -0.065,0 c -0.582,-0.82 -1.704,-1.553 -3.192,-1.553 -2.113,0 -3.192,1.488 -3.192,2.998 0,2.523 2.244,3.903 6.276,3.881 l 0,0.216 c 0,0.863 -0.238,2.415 -2.372,2.415 -0.971,0 -1.983,-0.301 -2.717,-0.776 l -0.431,1.251 c 0.862,0.561 2.113,0.928 3.428,0.928 3.193,0 3.969,-2.179 3.969,-4.271 l 0,-3.903 c 0,-0.905 0.042,-1.79 0.172,-2.502 l -1.726,0 z" /></g><g
         transform="translate(582.5918,405.7446)"
         id="g160"><path
           inkscape:connector-curvature="0"
           id="path162"
           style="fill:#047f7a;fill-opacity:1;fill-rule:nonzero;stroke:none"
           d="m 0,0 c 0,1.229 -0.021,2.286 -0.086,3.256 l 1.66,0 0.066,-2.049 0.086,0 c 0.473,1.402 1.617,2.287 2.889,2.287 0.215,0 0.367,-0.022 0.539,-0.065 l 0,-1.791 C 4.96,1.682 4.766,1.703 4.508,1.703 3.17,1.703 2.222,0.69 1.963,-0.734 1.919,-0.993 1.877,-1.294 1.877,-1.618 l 0,-5.564 L 0,-7.182 0,0 Z" /></g><g
         transform="translate(596.0498,404.7954)"
         id="g164"><path
           inkscape:connector-curvature="0"
           id="path166"
           style="fill:#047f7a;fill-opacity:1;fill-rule:nonzero;stroke:none"
           d="M 0,0 C 0.021,1.208 -0.497,3.084 -2.631,3.084 -4.552,3.084 -5.392,1.316 -5.544,0 L 0,0 Z m -5.564,-1.359 c 0.043,-2.566 1.682,-3.623 3.579,-3.623 1.359,0 2.179,0.237 2.889,0.539 l 0.325,-1.358 c -0.669,-0.302 -1.812,-0.648 -3.472,-0.648 -3.213,0 -5.134,2.115 -5.134,5.263 0,3.148 1.856,5.629 4.897,5.629 3.407,0 4.313,-2.998 4.313,-4.918 0,-0.388 -0.044,-0.69 -0.064,-0.884 l -7.333,0 z" /></g><g
         transform="translate(615.0234,399.0366)"
         id="g168"><path
           inkscape:connector-curvature="0"
           id="path170"
           style="fill:#047f7a;fill-opacity:1;fill-rule:nonzero;stroke:none"
           d="m 0,0 c -0.689,-0.344 -2.069,-0.69 -3.838,-0.69 -4.098,0 -7.182,2.588 -7.182,7.355 0,4.55 3.084,7.634 7.591,7.634 1.813,0 2.954,-0.388 3.451,-0.647 l -0.453,-1.531 c -0.712,0.345 -1.724,0.604 -2.933,0.604 -3.407,0 -5.671,-2.179 -5.671,-5.996 0,-3.558 2.048,-5.845 5.585,-5.845 1.142,0 2.307,0.239 3.063,0.605 L 0,0 Z" /></g><g
         transform="translate(618.2373,403.7603)"
         id="g172"><path
           inkscape:connector-curvature="0"
           id="path174"
           style="fill:#047f7a;fill-opacity:1;fill-rule:nonzero;stroke:none"
           d="m 0,0 c 0,-2.286 1.315,-4.011 3.17,-4.011 1.81,0 3.169,1.703 3.169,4.053 0,1.769 -0.883,4.013 -3.126,4.013 C 0.969,4.055 0,1.984 0,0 m 8.281,0.107 c 0,-3.859 -2.675,-5.542 -5.197,-5.542 -2.825,0 -5.005,2.071 -5.005,5.37 0,3.494 2.286,5.543 5.176,5.543 2.999,0 5.026,-2.178 5.026,-5.371" /></g><g
         transform="translate(628.9111,406.1758)"
         id="g176"><path
           inkscape:connector-curvature="0"
           id="path178"
           style="fill:#047f7a;fill-opacity:1;fill-rule:nonzero;stroke:none"
           d="m 0,0 c 0,1.078 -0.021,1.962 -0.085,2.825 l 1.66,0 0.085,-1.682 0.066,0 c 0.582,0.992 1.552,1.92 3.278,1.92 1.424,0 2.501,-0.863 2.954,-2.093 l 0.044,0 c 0.323,0.583 0.732,1.036 1.163,1.359 0.626,0.474 1.315,0.734 2.31,0.734 1.379,0 3.428,-0.907 3.428,-4.53 l 0,-6.146 -1.856,0 0,5.909 c 0,2.006 -0.733,3.214 -2.264,3.214 C 9.706,1.51 8.864,0.711 8.541,-0.216 8.455,-0.475 8.39,-0.819 8.39,-1.165 l 0,-6.448 -1.856,0 0,6.254 C 6.534,0.302 5.801,1.51 4.356,1.51 3.17,1.51 2.308,0.561 2.005,-0.388 1.898,-0.669 1.854,-0.993 1.854,-1.315 l 0,-6.298 L 0,-7.613 0,0 Z" /></g><g
         transform="translate(648.7715,402.811)"
         id="g180"><path
           inkscape:connector-curvature="0"
           id="path182"
           style="fill:#047f7a;fill-opacity:1;fill-rule:nonzero;stroke:none"
           d="m 0,0 c 0,-0.28 0.042,-0.539 0.086,-0.776 0.345,-1.315 1.487,-2.222 2.847,-2.222 2.005,0 3.17,1.64 3.17,4.034 0,2.091 -1.099,3.881 -3.106,3.881 C 1.702,4.917 0.495,3.99 0.128,2.566 0.063,2.329 0,2.049 0,1.791 L 0,0 Z m -1.877,2.782 c 0,1.338 -0.043,2.415 -0.085,3.408 l 1.703,0 0.086,-1.791 0.044,0 C 0.646,5.672 1.876,6.427 3.58,6.427 6.103,6.427 8,4.292 8,1.122 8,-2.631 5.714,-4.485 3.256,-4.485 c -1.38,0 -2.587,0.603 -3.214,1.639 l -0.042,0 0,-5.673 -1.877,0 0,11.301 z" /></g><g
         transform="translate(664.665,403.8896)"
         id="g184"><path
           inkscape:connector-curvature="0"
           id="path186"
           style="fill:#047f7a;fill-opacity:1;fill-rule:nonzero;stroke:none"
           d="m 0,0 c -2.071,0.043 -4.423,-0.324 -4.423,-2.351 0,-1.229 0.82,-1.812 1.792,-1.812 1.358,0 2.22,0.864 2.523,1.748 C -0.044,-2.222 0,-2.006 0,-1.812 L 0,0 Z m 0.279,-5.327 -0.15,1.316 -0.065,0 c -0.583,-0.82 -1.704,-1.553 -3.192,-1.553 -2.113,0 -3.192,1.488 -3.192,2.998 0,2.523 2.244,3.903 6.276,3.881 l 0,0.216 c 0,0.863 -0.238,2.415 -2.372,2.415 -0.971,0 -1.983,-0.301 -2.717,-0.776 l -0.431,1.251 c 0.862,0.561 2.112,0.928 3.428,0.928 3.193,0 3.969,-2.179 3.969,-4.271 l 0,-3.903 c 0,-0.905 0.042,-1.79 0.172,-2.502 l -1.726,0 z" /></g><g
         transform="translate(669.5576,406.1758)"
         id="g188"><path
           inkscape:connector-curvature="0"
           id="path190"
           style="fill:#047f7a;fill-opacity:1;fill-rule:nonzero;stroke:none"
           d="m 0,0 c 0,1.078 -0.021,1.962 -0.086,2.825 l 1.682,0 0.108,-1.725 0.044,0 c 0.516,0.991 1.725,1.963 3.449,1.963 1.446,0 3.688,-0.863 3.688,-4.443 l 0,-6.233 -1.898,0 0,6.017 C 6.987,0.086 6.362,1.488 4.573,1.488 3.32,1.488 2.352,0.604 2.027,-0.453 1.94,-0.69 1.898,-1.014 1.898,-1.337 l 0,-6.276 L 0,-7.613 0,0 Z" /></g><g
         transform="translate(681.9365,409.001)"
         id="g192"><path
           inkscape:connector-curvature="0"
           id="path194"
           style="fill:#047f7a;fill-opacity:1;fill-rule:nonzero;stroke:none"
           d="m 0,0 2.286,-6.168 c 0.237,-0.69 0.497,-1.51 0.668,-2.135 l 0.044,0 c 0.194,0.625 0.409,1.423 0.668,2.178 L 5.737,0 7.742,0 4.896,-7.441 c -1.359,-3.58 -2.287,-5.413 -3.581,-6.535 -0.927,-0.819 -1.854,-1.142 -2.329,-1.228 l -0.473,1.596 c 0.473,0.15 1.1,0.452 1.66,0.927 0.517,0.41 1.165,1.143 1.596,2.113 0.086,0.194 0.151,0.346 0.151,0.453 0,0.108 -0.043,0.26 -0.129,0.496 L -2.07,0 0,0 Z" /></g><g
         transform="translate(287.4771,426.5703)"
         id="g196"><path
           inkscape:connector-curvature="0"
           id="path198"
           style="fill:#179ae6;fill-opacity:1;fill-rule:evenodd;stroke:none"
           d="m 0,0 c 0.01,7.288 0.021,14.575 0.03,21.862 3.348,12.488 15.255,16.996 30.633,17.645 11.271,0.477 22.146,-1.457 32.973,-3.659 3.517,-0.715 3.875,-1.644 1.782,-3.7 -1.1,-1.081 -1.689,-2.353 -1.228,-3.778 -0.717,-1.171 -1.499,-2.304 -2.912,-3.086 -3.413,-2.129 -4.63,-5.638 -8.168,-7.689 -0.51,0.078 -0.92,0.28 -1.252,0.583 -6.596,7.612 -19.995,9.416 -28.568,3.836 -2.289,-2.088 -5.455,-3.71 -6.321,-6.986 9.06,1.215 16.848,-0.102 23.035,-5.304 9.316,-9.058 8.244,-18.242 0.571,-27.507 -5.033,-2.693 -10.449,-4.718 -16.535,-5.567 -0.344,-0.017 -0.693,-0.025 -1.036,0.013 -7.766,0.86 -7.725,0.86 -7.798,-5.418 -0.025,-2.111 0.481,-4.285 -0.822,-6.307 -0.19,-0.141 -0.383,-0.28 -0.575,-0.419 -7.61,3.351 -14.8,6.548 -13.706,15.021 C 0.974,-13.709 0.099,-6.825 0,0" /></g><g
         transform="translate(327.3418,409.1758)"
         id="g200"><path
           inkscape:connector-curvature="0"
           id="path202"
           style="fill:#037d79;fill-opacity:1;fill-rule:evenodd;stroke:none"
           d="m 0,0 c 0.072,3.117 3.595,5.02 4.511,7.992 2.224,7.204 -0.385,13.344 -5.476,19.185 2.19,4.283 7.476,4.716 12.225,5.82 2.243,0.085 4.563,0.339 6.701,-0.202 4.362,-1.105 5.12,0.599 4.938,3.357 -0.105,1.59 -0.046,3.188 0.005,4.782 0.047,1.459 -0.009,2.947 1.42,4.129 5.719,-2.357 11.694,-4.505 13.768,-9.866 0.015,-15.348 0.032,-30.697 0.047,-46.045 -2.486,-14.318 -19.354,-19.73 -35.487,-18.717 -9.458,0.592 -18.924,1.385 -28.017,3.958 -3.706,1.047 -3.829,2.064 -1.798,4.128 0.991,1.006 1.454,2.124 1.107,3.393 l -0.032,-0.076 c 1.881,3.174 3.963,6.271 6.453,9.185 1.205,1.411 2.344,3.173 5.309,2.418 4.831,-5.381 11.192,-8.161 19.996,-7.499 7.211,0.541 11.602,3.702 15.33,8.457 -2.947,0.86 -5.502,-0.018 -7.971,0.21 C 7.756,-4.901 2.686,-4.165 0,0" /></g></g></g></svg>