<?xml version="1.0" encoding="UTF-8" standalone="no"?>
<!-- Created with Inkscape (http://www.inkscape.org/) -->

<svg
   xmlns:dc="http://purl.org/dc/elements/1.1/"
   xmlns:cc="http://creativecommons.org/ns#"
   xmlns:rdf="http://www.w3.org/1999/02/22-rdf-syntax-ns#"
   xmlns:svg="http://www.w3.org/2000/svg"
   xmlns="http://www.w3.org/2000/svg"
   xmlns:sodipodi="http://sodipodi.sourceforge.net/DTD/sodipodi-0.dtd"
   xmlns:inkscape="http://www.inkscape.org/namespaces/inkscape"
   id="svg2"
   version="1.1"
   inkscape:version="0.91 r13725"
   xml:space="preserve"
   width="151.15759"
   height="196.53381"
   viewBox="0 0 151.15759 196.53381"
   sodipodi:docname="splash_logo_corner.svg"><metadata
     id="metadata8"><rdf:RDF><cc:Work
         rdf:about=""><dc:format>image/svg+xml</dc:format><dc:type
           rdf:resource="http://purl.org/dc/dcmitype/StillImage" /><dc:title></dc:title></cc:Work></rdf:RDF></metadata><defs
     id="defs6"><clipPath
       clipPathUnits="userSpaceOnUse"
       id="clipPath16"><path
         d="M 0.502,0 1024,0 l 0,768 -1023.498,0 0,-768 z"
         id="path18"
         inkscape:connector-curvature="0" /></clipPath><clipPath
       clipPathUnits="userSpaceOnUse"
       id="clipPath30"><path
         d="M 0,768 1024,768 1024,0 0,0 0,768 Z"
         id="path32"
         inkscape:connector-curvature="0" /></clipPath><clipPath
       clipPathUnits="userSpaceOnUse"
       id="clipPath38"><path
         d="m 785.918,256.521 256.842,0 0,-285.3126 -256.842,0 0,285.3126 z"
         id="path40"
         inkscape:connector-curvature="0" /></clipPath><clipPath
       clipPathUnits="userSpaceOnUse"
       id="clipPath4271"><rect
         style="fill:#000000;fill-opacity:0.11764706;stroke:none;stroke-width:30;stroke-linecap:square;stroke-linejoin:round;stroke-miterlimit:4;stroke-dasharray:none;stroke-opacity:1"
         id="rect4273"
         width="597.13367"
         height="526.48639"
         x="139.90915"
         y="-525.28528" /></clipPath></defs><sodipodi:namedview
     pagecolor="#ffffff"
     bordercolor="#666666"
     borderopacity="1"
     objecttolerance="10"
     gridtolerance="10"
     guidetolerance="10"
     inkscape:pageopacity="0"
     inkscape:pageshadow="2"
     inkscape:window-width="1865"
     inkscape:window-height="1056"
     id="namedview4"
     showgrid="false"
     inkscape:zoom="0.98333334"
     inkscape:cx="203.65402"
     inkscape:cy="219.40044"
     inkscape:window-x="55"
     inkscape:window-y="24"
     inkscape:window-maximized="1"
     inkscape:current-layer="layer1"
     fit-margin-top="0"
     fit-margin-left="0"
     fit-margin-right="0"
     fit-margin-bottom="0" /><g
     id="g10"
     inkscape:groupmode="layer"
     inkscape:label="background"
     transform="matrix(1.25,0,0,-1.25,-48.842419,196.53379)" /><g
     inkscape:groupmode="layer"
     id="layer1"
     inkscape:label="content"
     transform="translate(-48.842419,-763.46621)"><path
       inkscape:connector-curvature="0"
       style="fill:#017c78;fill-opacity:1;stroke:none;stroke-width:30;stroke-linecap:square;stroke-linejoin:round;stroke-miterlimit:4;stroke-dasharray:none;stroke-opacity:1"
       d="m 80.519127,960.00001 119.480873,0 0,-156.60307 -12.95195,-9.20205 0,34.33444 0,6.56905 c -6.45807,-3.40932 -13.64912,-5.19726 -20.95187,-5.20769 -24.86186,-3.1e-4 -45.01703,20.15484 -45.01672,45.0167 -3.1e-4,24.86187 20.15486,45.01703 45.01672,45.01672 6.83362,-0.0115 13.57365,-1.58028 19.71162,-4.58421 -3.64903,16.9899 -15.63999,31.44576 -39.49503,31.44576 -18.41456,0 -31.0183,-4.32586 -42.47789,-23.55124 l -23.315753,36.76559 z"
       id="path4281" /><path
       inkscape:connector-curvature="0"
       style="fill:#169ae7;fill-opacity:1;stroke:none;stroke-width:30;stroke-linecap:square;stroke-linejoin:round;stroke-miterlimit:4;stroke-dasharray:none;stroke-opacity:1"
       d="m 122.7199,767.76977 c -5.77622,0.04 -11.90931,0.48824 -18.61527,1.48735 -29.192502,4.34931 -51.957127,19.887 -51.957127,59.21226 l 0,106.23807 29.408231,20.8922 0,-34.33544 0,-6.56757 c 6.458079,3.40933 13.648626,5.19628 20.951376,5.20673 24.86186,3e-4 45.01646,-20.1543 45.01616,-45.01617 3e-4,-24.86188 -20.1543,-45.01648 -45.01616,-45.01618 -6.833626,0.0115 -13.574961,1.57848 -19.712949,4.58242 3.64905,-16.98992 15.621196,-31.4444 39.495249,-31.4444 18.51733,0 31.0185,4.32528 42.47809,23.55066 l 30.38959,-47.9215 c -28.62722,-7.67063 -47.4069,-11.0415 -72.43719,-10.86843 z"
       id="path4275"
       sodipodi:nodetypes="sssccccccccsccs" /></g></svg>