<?xml version="1.0" encoding="UTF-8" standalone="no"?>
<!-- Created with Inkscape (http://www.inkscape.org/) -->

<svg
   xmlns:dc="http://purl.org/dc/elements/1.1/"
   xmlns:cc="http://creativecommons.org/ns#"
   xmlns:rdf="http://www.w3.org/1999/02/22-rdf-syntax-ns#"
   xmlns:svg="http://www.w3.org/2000/svg"
   xmlns="http://www.w3.org/2000/svg"
   xmlns:sodipodi="http://sodipodi.sourceforge.net/DTD/sodipodi-0.dtd"
   xmlns:inkscape="http://www.inkscape.org/namespaces/inkscape"
   id="svg2"
   version="1.1"
   inkscape:version="0.91 r13725"
   xml:space="preserve"
   width="400"
   height="108.9327"
   viewBox="0 0 400 108.9327"
   sodipodi:docname="splash_logo_full_export.svg"
   inkscape:export-filename="/home/saladthieves/Desktop/buusaa_gonofa_splash_logo.png"
   inkscape:export-xdpi="450"
   inkscape:export-ydpi="450"><metadata
     id="metadata8"><rdf:RDF><cc:Work
         rdf:about=""><dc:format>image/svg+xml</dc:format><dc:type
           rdf:resource="http://purl.org/dc/dcmitype/StillImage" /><dc:title /></cc:Work></rdf:RDF></metadata><defs
     id="defs6"><clipPath
       clipPathUnits="userSpaceOnUse"
       id="clipPath16"><path
         d="M 0.502,0 1024,0 l 0,768 -1023.498,0 0,-768 z"
         id="path18"
         inkscape:connector-curvature="0" /></clipPath><clipPath
       clipPathUnits="userSpaceOnUse"
       id="clipPath30"><path
         d="M 0,768 1024,768 1024,0 0,0 0,768 Z"
         id="path32"
         inkscape:connector-curvature="0" /></clipPath><clipPath
       clipPathUnits="userSpaceOnUse"
       id="clipPath38"><path
         d="m 785.918,256.521 256.842,0 0,-285.3126 -256.842,0 0,285.3126 z"
         id="path40"
         inkscape:connector-curvature="0" /></clipPath><clipPath
       clipPathUnits="userSpaceOnUse"
       id="clipPath4271"><rect
         style="fill:#000000;fill-opacity:0.11764706;stroke:none;stroke-width:30;stroke-linecap:square;stroke-linejoin:round;stroke-miterlimit:4;stroke-dasharray:none;stroke-opacity:1"
         id="rect4273"
         width="597.13367"
         height="526.48639"
         x="139.90915"
         y="-525.28528" /></clipPath></defs><sodipodi:namedview
     pagecolor="#ffffff"
     bordercolor="#666666"
     borderopacity="1"
     objecttolerance="10"
     gridtolerance="10"
     guidetolerance="10"
     inkscape:pageopacity="0"
     inkscape:pageshadow="2"
     inkscape:window-width="1865"
     inkscape:window-height="1056"
     id="namedview4"
     showgrid="false"
     inkscape:zoom="2.7812867"
     inkscape:cx="194.56849"
     inkscape:cy="19.606316"
     inkscape:window-x="55"
     inkscape:window-y="24"
     inkscape:window-maximized="1"
     inkscape:current-layer="layer1"
     fit-margin-top="0"
     fit-margin-left="0"
     fit-margin-right="0"
     fit-margin-bottom="0" /><g
     id="g10"
     inkscape:groupmode="layer"
     inkscape:label="background"
     transform="matrix(1.25,0,0,-1.25,-38.703838,120.18068)" /><g
     inkscape:groupmode="layer"
     id="layer1"
     inkscape:label="content"
     transform="translate(-38.703838,-839.81932)"><path
       id="path4281"
       d="m 96.415416,945.15377 c 2.74276,-0.019 5.654974,-0.23183 8.839204,-0.70624 13.86168,-2.06522 24.67117,-9.44309 24.67117,-28.11618 l 0,-50.44574 -13.96412,-9.92038 0,19.42225 c -3.06652,-1.61887 -6.48087,-2.46738 -9.94848,-2.47235 -11.805332,-1.4e-4 -21.375477,9.57001 -21.375331,21.37534 -1.46e-4,11.80533 9.569999,21.37548 21.375331,21.37533 3.24485,-0.006 6.44589,-0.74951 9.36043,-2.17589 -1.7327,8.06743 -7.42654,14.93095 -18.753793,14.93095 -8.743919,0 -14.728726,-2.05379 -20.170164,-11.18271 l -14.430092,22.75489 c 13.116049,3.51444 22.510537,5.24291 34.395845,5.16073 z"
       style="fill:#017c78;fill-opacity:1;stroke:none;stroke-width:30;stroke-linecap:square;stroke-linejoin:round;stroke-miterlimit:4;stroke-dasharray:none;stroke-opacity:1"
       inkscape:connector-curvature="0"
       sodipodi:nodetypes="csscccccccsccc" /><path
       inkscape:connector-curvature="0"
       style="fill:#169ae7;fill-opacity:1;stroke:none;stroke-width:30;stroke-linecap:square;stroke-linejoin:round;stroke-miterlimit:4;stroke-dasharray:none;stroke-opacity:1"
       d="m 85.416706,843.41779 c -2.742762,0.019 -5.654977,0.23183 -8.839219,0.70624 -13.861673,2.06521 -24.671156,9.44309 -24.671156,28.11616 l 0,50.44575 13.964112,9.9204 0,-19.42226 c 3.066531,1.61887 6.48087,2.46738 9.948482,2.47235 11.805331,1.4e-4 21.375479,-9.57001 21.375336,-21.37535 1.43e-4,-11.80533 -9.570005,-21.37548 -21.375336,-21.37533 -3.244854,0.006 -6.445891,0.74952 -9.360431,2.17589 1.732705,-8.06743 7.41752,-14.93095 18.7538,-14.93095 8.792711,0 14.728723,2.0538 20.170156,11.18272 l 14.4301,-22.75489 c -13.59325,-3.6423 -22.510539,-5.24292 -34.395844,-5.16073 z"
       id="path4275"
       sodipodi:nodetypes="ssscccccccsccs" /><path
       inkscape:connector-curvature="0"
       id="path4294"
       style="font-style:normal;font-variant:normal;font-weight:normal;font-stretch:normal;font-size:medium;line-height:125%;font-family:Calibri;-inkscape-font-specification:Calibri;letter-spacing:0px;word-spacing:0px;fill:#017c78;fill-opacity:1;stroke:#017c78;stroke-width:0.99203879;stroke-linecap:butt;stroke-linejoin:miter;stroke-miterlimit:4;stroke-dasharray:none;stroke-opacity:1"
       d="m 163.39182,881.67111 q 0,1.28801 -0.33783,2.38599 -0.31673,1.07686 -0.90795,1.94256 -0.59121,0.86571 -1.43581,1.52028 -0.82348,0.65456 -1.87922,1.09797 -1.03463,0.44342 -2.23818,0.67568 -1.18244,0.21115 -2.72382,0.21115 l -7.13684,0 q -0.48563,0 -0.92905,-0.31673 -0.4223,-0.33784 -0.4223,-1.16132 l 0,-24.36658 q 0,-0.82348 0.4223,-1.14021 0.44342,-0.33783 0.92905,-0.33783 l 6.20778,0 q 2.44933,0 4.01183,0.46452 1.56251,0.46453 2.59713,1.35136 1.05575,0.88682 1.58362,2.17484 0.52787,1.288 0.52787,2.91385 0,0.97128 -0.23226,1.85811 -0.23226,0.88682 -0.69679,1.64696 -0.44341,0.73902 -1.14021,1.33024 -0.67567,0.59121 -1.5625,0.97128 1.11909,0.21115 2.09038,0.78125 0.97128,0.54899 1.68919,1.4147 0.73901,0.86571 1.16132,2.02703 0.42229,1.16132 0.42229,2.5549 z m -5.46875,-12.22552 q 0,-0.9924 -0.2745,-1.79477 -0.27449,-0.80236 -0.8657,-1.35135 -0.59122,-0.5701 -1.5414,-0.86571 -0.95016,-0.29561 -2.51267,-0.29561 l -3.75845,0 0,8.84714 4.13852,0 q 1.4147,0 2.28041,-0.35895 0.86571,-0.38007 1.43581,-0.99241 0.57011,-0.63344 0.82348,-1.45692 0.2745,-0.8446 0.2745,-1.73142 z m 1.64696,12.43667 q 0,-1.22466 -0.40119,-2.15372 -0.38007,-0.92906 -1.1402,-1.5625 -0.73902,-0.63345 -1.87922,-0.95017 -1.11909,-0.33784 -2.8294,-0.33784 l -4.34967,0 0,9.62839 5.27872,0 q 1.24578,0 2.17484,-0.2956 0.92906,-0.29561 1.62585,-0.86572 0.71791,-0.59121 1.11908,-1.45692 0.40119,-0.86572 0.40119,-2.00592 z" /><path
       inkscape:connector-curvature="0"
       id="path4296"
       style="font-style:normal;font-variant:normal;font-weight:normal;font-stretch:normal;font-size:medium;line-height:125%;font-family:Calibri;-inkscape-font-specification:Calibri;letter-spacing:0px;word-spacing:0px;fill:#017c78;fill-opacity:1;stroke:#017c78;stroke-width:0.99203879;stroke-linecap:butt;stroke-linejoin:miter;stroke-miterlimit:4;stroke-dasharray:none;stroke-opacity:1"
       d="m 184.82343,888.97687 q 0,0.16891 -0.0844,0.2956 -0.0633,0.10557 -0.25338,0.19003 -0.19003,0.0844 -0.50676,0.1267 -0.2956,0.0422 -0.73902,0.0422 -0.48565,0 -0.80236,-0.0422 -0.29562,-0.0422 -0.48565,-0.1267 -0.16892,-0.0844 -0.23226,-0.19003 -0.0633,-0.12669 -0.0633,-0.2956 l 0,-2.51268 q -1.62585,1.79477 -3.20947,2.61825 -1.58362,0.82348 -3.20947,0.82348 -1.90033,0 -3.20946,-0.63345 -1.288,-0.63345 -2.09037,-1.71031 -0.80236,-1.09797 -1.16132,-2.53378 -0.33784,-1.45693 -0.33784,-3.52619 l 0,-11.52873 q 0,-0.16892 0.0633,-0.27449 0.0844,-0.12669 0.2956,-0.21115 0.21115,-0.10557 0.54899,-0.12669 0.33785,-0.0422 0.8446,-0.0422 0.50675,0 0.84459,0.0422 0.33785,0.0211 0.52788,0.12669 0.21115,0.0844 0.2956,0.21115 0.0844,0.10557 0.0844,0.27449 l 0,11.0642 q 0,1.66808 0.23227,2.68159 0.25338,0.9924 0.73903,1.71031 0.50675,0.6968 1.26688,1.09798 0.76014,0.38006 1.77366,0.38006 1.30912,0 2.59713,-0.92905 1.30912,-0.92905 2.76605,-2.72382 l 0,-13.28127 q 0,-0.16892 0.0633,-0.27449 0.0844,-0.12669 0.2956,-0.21115 0.21115,-0.10557 0.52788,-0.12669 0.33783,-0.0422 0.8657,-0.0422 0.50677,0 0.8446,0.0422 0.33784,0.0211 0.52787,0.12669 0.19004,0.0844 0.2745,0.21115 0.10557,0.10557 0.10557,0.27449 l 0,19.00341 z" /><path
       inkscape:connector-curvature="0"
       id="path4298"
       style="font-style:normal;font-variant:normal;font-weight:normal;font-stretch:normal;font-size:medium;line-height:125%;font-family:Calibri;-inkscape-font-specification:Calibri;letter-spacing:0px;word-spacing:0px;fill:#017c78;fill-opacity:1;stroke:#017c78;stroke-width:0.99203879;stroke-linecap:butt;stroke-linejoin:miter;stroke-miterlimit:4;stroke-dasharray:none;stroke-opacity:1"
       d="m 207.54306,888.97687 q 0,0.16891 -0.0844,0.2956 -0.0633,0.10557 -0.25338,0.19003 -0.19003,0.0844 -0.50675,0.1267 -0.29561,0.0422 -0.73903,0.0422 -0.48564,0 -0.80236,-0.0422 -0.29561,-0.0422 -0.48565,-0.1267 -0.16892,-0.0844 -0.23226,-0.19003 -0.0633,-0.12669 -0.0633,-0.2956 l 0,-2.51268 q -1.62585,1.79477 -3.20947,2.61825 -1.58361,0.82348 -3.20946,0.82348 -1.90034,0 -3.20947,-0.63345 -1.288,-0.63345 -2.09037,-1.71031 -0.80237,-1.09797 -1.16132,-2.53378 -0.33784,-1.45693 -0.33784,-3.52619 l 0,-11.52873 q 0,-0.16892 0.0633,-0.27449 0.0844,-0.12669 0.2956,-0.21115 0.21116,-0.10557 0.54899,-0.12669 0.33784,-0.0422 0.8446,-0.0422 0.50676,0 0.84459,0.0422 0.33785,0.0211 0.52788,0.12669 0.21115,0.0844 0.29561,0.21115 0.0844,0.10557 0.0844,0.27449 l 0,11.0642 q 0,1.66808 0.23227,2.68159 0.25338,0.9924 0.73902,1.71031 0.50676,0.6968 1.26689,1.09798 0.76014,0.38006 1.77366,0.38006 1.30912,0 2.59713,-0.92905 1.30912,-0.92905 2.76605,-2.72382 l 0,-13.28127 q 0,-0.16892 0.0633,-0.27449 0.0844,-0.12669 0.29561,-0.21115 0.21114,-0.10557 0.52787,-0.12669 0.33783,-0.0422 0.86571,-0.0422 0.50676,0 0.8446,0.0422 0.33783,0.0211 0.52787,0.12669 0.19003,0.0844 0.27449,0.21115 0.10558,0.10557 0.10558,0.27449 l 0,19.00341 z" /><path
       inkscape:connector-curvature="0"
       id="path4300"
       style="font-style:normal;font-variant:normal;font-weight:normal;font-stretch:normal;font-size:medium;line-height:125%;font-family:Calibri;-inkscape-font-specification:Calibri;letter-spacing:0px;word-spacing:0px;fill:#017c78;fill-opacity:1;stroke:#017c78;stroke-width:0.99203879;stroke-linecap:butt;stroke-linejoin:miter;stroke-miterlimit:4;stroke-dasharray:none;stroke-opacity:1"
       d="m 225.91302,883.80371 q 0,1.45693 -0.54899,2.59713 -0.52787,1.14021 -1.52027,1.92146 -0.99241,0.78125 -2.36487,1.18244 -1.37247,0.40118 -3.01943,0.40118 -1.01351,0 -1.94257,-0.16892 -0.90794,-0.1478 -1.64696,-0.38007 -0.7179,-0.25338 -1.22467,-0.50676 -0.50675,-0.27449 -0.73902,-0.48564 -0.23226,-0.21115 -0.33784,-0.59122 -0.10557,-0.38007 -0.10557,-1.03462 0,-0.40119 0.0422,-0.67568 0.0422,-0.2745 0.10558,-0.44342 0.0633,-0.16892 0.16892,-0.23226 0.12669,-0.0844 0.27449,-0.0844 0.23226,0 0.67567,0.2956 0.46453,0.27449 1.1191,0.61233 0.67567,0.33784 1.58361,0.63344 0.90794,0.2745 2.09038,0.2745 0.88682,0 1.60473,-0.19004 0.71791,-0.19002 1.24578,-0.54897 0.52787,-0.38008 0.80236,-0.95018 0.29561,-0.5701 0.29561,-1.35135 0,-0.80237 -0.4223,-1.35136 -0.40118,-0.54898 -1.07686,-0.97128 -0.67567,-0.4223 -1.52027,-0.73902 -0.84459,-0.33784 -1.75253,-0.69679 -0.88683,-0.35896 -1.75254,-0.80237 -0.8446,-0.46453 -1.52027,-1.11909 -0.67568,-0.65456 -1.09798,-1.5625 -0.40118,-0.90794 -0.40118,-2.17483 0,-1.1191 0.4223,-2.13261 0.44341,-1.03463 1.30912,-1.79477 0.86571,-0.78125 2.15372,-1.24578 1.30912,-0.46452 3.04055,-0.46452 0.76013,0 1.52027,0.12669 0.76013,0.12669 1.37247,0.31673 0.61233,0.19003 1.03463,0.42229 0.44341,0.21116 0.65456,0.38007 0.23226,0.16892 0.2956,0.2956 0.0844,0.1267 0.10558,0.29561 0.0422,0.14781 0.0633,0.38007 0.0422,0.23226 0.0422,0.5701 0,0.35896 -0.0422,0.63345 -0.0211,0.25338 -0.10558,0.4223 -0.0633,0.16892 -0.16891,0.25338 -0.10558,0.0633 -0.23227,0.0633 -0.19004,0 -0.54899,-0.23226 -0.35896,-0.23227 -0.92905,-0.48564 -0.57011,-0.2745 -1.35136,-0.50676 -0.76014,-0.23226 -1.75253,-0.23226 -0.88684,0 -1.56251,0.21114 -0.67567,0.19004 -1.11909,0.57011 -0.42229,0.35895 -0.65455,0.86571 -0.21116,0.50675 -0.21116,1.09798 0,0.82348 0.4223,1.39357 0.4223,0.54899 1.09797,0.97129 0.67569,0.4223 1.54139,0.76014 0.86571,0.33783 1.75254,0.69679 0.90794,0.35895 1.77365,0.80236 0.88683,0.44342 1.5625,1.07686 0.67568,0.63345 1.07686,1.52027 0.4223,0.88683 0.4223,2.11149 z" /><path
       inkscape:connector-curvature="0"
       id="path4302"
       style="font-style:normal;font-variant:normal;font-weight:normal;font-stretch:normal;font-size:medium;line-height:125%;font-family:Calibri;-inkscape-font-specification:Calibri;letter-spacing:0px;word-spacing:0px;fill:#017c78;fill-opacity:1;stroke:#017c78;stroke-width:0.99203879;stroke-linecap:butt;stroke-linejoin:miter;stroke-miterlimit:4;stroke-dasharray:none;stroke-opacity:1"
       d="m 245.19092,888.99797 q 0,0.25339 -0.16893,0.38007 -0.16892,0.1267 -0.46452,0.19004 -0.29561,0.0633 -0.86571,0.0633 -0.54899,0 -0.88683,-0.0633 -0.31672,-0.0633 -0.46453,-0.19004 -0.1478,-0.12668 -0.1478,-0.38007 l 0,-1.90033 q -1.24578,1.33024 -2.78717,2.06926 -1.52027,0.73902 -3.23058,0.73902 -1.49915,0 -2.72381,-0.40118 -1.20355,-0.38007 -2.06926,-1.1191 -0.8446,-0.73901 -1.33024,-1.81587 -0.46453,-1.07686 -0.46453,-2.44933 0,-1.60473 0.65456,-2.78717 0.65456,-1.18243 1.87923,-1.96368 1.22466,-0.78125 2.99831,-1.16132 1.77365,-0.40118 3.99072,-0.40118 l 2.61824,0 0,-1.47805 q 0,-1.09798 -0.23226,-1.94257 -0.23227,-0.8446 -0.76014,-1.39358 -0.50675,-0.5701 -1.33024,-0.84459 -0.82348,-0.29561 -2.02702,-0.29561 -1.28802,0 -2.32264,0.31673 -1.01352,0.2956 -1.79477,0.67567 -0.76014,0.35895 -1.28801,0.67567 -0.50675,0.29561 -0.76013,0.29561 -0.16892,0 -0.29561,-0.0844 -0.12668,-0.0844 -0.23226,-0.25338 -0.0844,-0.16891 -0.12669,-0.4223 -0.0422,-0.27449 -0.0422,-0.59121 0,-0.52788 0.0633,-0.82349 0.0844,-0.31671 0.35895,-0.59121 0.29562,-0.27449 0.9924,-0.63345 0.6968,-0.38007 1.60474,-0.67567 0.90794,-0.31673 1.9848,-0.50676 1.07686,-0.21115 2.17483,-0.21115 2.04814,0 3.48395,0.46452 1.43581,0.46453 2.32264,1.37247 0.88683,0.88683 1.28801,2.21707 0.40119,1.33023 0.40119,3.10389 l 0,12.81673 z m -3.46285,-8.67821 -2.97719,0 q -1.43582,0 -2.49157,0.25338 -1.05574,0.23226 -1.75253,0.71791 -0.69679,0.46452 -1.03462,1.1402 -0.31673,0.65456 -0.31673,1.52027 0,1.47804 0.92906,2.36486 0.95016,0.86572 2.63935,0.86572 1.37247,0 2.53379,-0.69679 1.18244,-0.6968 2.47044,-2.13261 l 0,-4.03294 z" /><path
       inkscape:connector-curvature="0"
       id="path4304"
       style="font-style:normal;font-variant:normal;font-weight:normal;font-stretch:normal;font-size:medium;line-height:125%;font-family:Calibri;-inkscape-font-specification:Calibri;letter-spacing:0px;word-spacing:0px;fill:#017c78;fill-opacity:1;stroke:#017c78;stroke-width:0.99203879;stroke-linecap:butt;stroke-linejoin:miter;stroke-miterlimit:4;stroke-dasharray:none;stroke-opacity:1"
       d="m 265.8835,888.99797 q 0,0.25339 -0.16892,0.38007 -0.16891,0.1267 -0.46453,0.19004 -0.29559,0.0633 -0.8657,0.0633 -0.54899,0 -0.88683,-0.0633 -0.31672,-0.0633 -0.46453,-0.19004 -0.1478,-0.12668 -0.1478,-0.38007 l 0,-1.90033 q -1.24577,1.33024 -2.78717,2.06926 -1.52027,0.73902 -3.23057,0.73902 -1.49916,0 -2.72382,-0.40118 -1.20355,-0.38007 -2.06926,-1.1191 -0.8446,-0.73901 -1.33024,-1.81587 -0.46453,-1.07686 -0.46453,-2.44933 0,-1.60473 0.65456,-2.78717 0.65456,-1.18243 1.87922,-1.96368 1.22467,-0.78125 2.99832,-1.16132 1.77365,-0.40118 3.99071,-0.40118 l 2.61825,0 0,-1.47805 q 0,-1.09798 -0.23226,-1.94257 -0.23227,-0.8446 -0.76014,-1.39358 -0.50675,-0.5701 -1.33024,-0.84459 -0.82348,-0.29561 -2.02702,-0.29561 -1.28801,0 -2.32264,0.31673 -1.01351,0.2956 -1.79476,0.67567 -0.76015,0.35895 -1.28802,0.67567 -0.50675,0.29561 -0.76013,0.29561 -0.16893,0 -0.29561,-0.0844 -0.12669,-0.0844 -0.23227,-0.25338 -0.0844,-0.16891 -0.12668,-0.4223 -0.0422,-0.27449 -0.0422,-0.59121 0,-0.52788 0.0633,-0.82349 0.0844,-0.31671 0.35896,-0.59121 0.2956,-0.27449 0.99239,-0.63345 0.6968,-0.38007 1.60474,-0.67567 0.90793,-0.31673 1.98479,-0.50676 1.07686,-0.21115 2.17484,-0.21115 2.04814,0 3.48396,0.46452 1.43581,0.46453 2.32263,1.37247 0.88683,0.88683 1.28801,2.21707 0.40118,1.33023 0.40118,3.10389 l 0,12.81673 z m -3.46284,-8.67821 -2.9772,0 q -1.43581,0 -2.49156,0.25338 -1.05574,0.23226 -1.75253,0.71791 -0.69679,0.46452 -1.03463,1.1402 -0.31672,0.65456 -0.31672,1.52027 0,1.47804 0.92905,2.36486 0.95017,0.86572 2.63937,0.86572 1.37247,0 2.53379,-0.69679 1.18242,-0.6968 2.47043,-2.13261 l 0,-4.03294 z" /><path
       inkscape:connector-curvature="0"
       id="path4306"
       style="font-style:normal;font-variant:normal;font-weight:normal;font-stretch:normal;font-size:medium;line-height:125%;font-family:Calibri;-inkscape-font-specification:Calibri;letter-spacing:0px;word-spacing:0px;fill:#017c78;fill-opacity:1;stroke:#017c78;stroke-width:0.99203879;stroke-linecap:butt;stroke-linejoin:miter;stroke-miterlimit:4;stroke-dasharray:none;stroke-opacity:1"
       d="m 302.98238,865.89829 q 0,0.40118 -0.0422,0.71791 -0.0422,0.2956 -0.12669,0.50675 -0.0844,0.19003 -0.21114,0.2745 -0.1267,0.0844 -0.2745,0.0844 -0.25338,0 -0.8446,-0.40117 -0.59121,-0.40119 -1.58361,-0.88683 -0.9924,-0.48564 -2.38598,-0.88683 -1.37247,-0.40118 -3.27282,-0.40118 -2.25929,0 -4.05406,0.82348 -1.79476,0.82348 -3.04054,2.28041 -1.24578,1.45693 -1.92145,3.46284 -0.65457,2.00591 -0.65457,4.34967 0,2.61825 0.71791,4.64527 0.73902,2.02703 2.02703,3.42062 1.28801,1.39358 3.06166,2.11148 1.79476,0.71791 3.92737,0.71791 1.26689,0 2.5549,-0.29561 1.30912,-0.31672 2.42822,-0.92905 l 0,-7.96032 -6.33447,0 q -0.35895,0 -0.54899,-0.35895 -0.16891,-0.35895 -0.16891,-1.11909 0,-0.40118 0.0422,-0.67567 0.0422,-0.29561 0.12669,-0.46453 0.10558,-0.19004 0.23226,-0.2745 0.1267,-0.0844 0.31673,-0.0844 l 8.67822,0 q 0.23226,0 0.46452,0.0844 0.23227,0.0844 0.42231,0.25338 0.19003,0.16892 0.2956,0.46453 0.10557,0.29561 0.10557,0.67568 l 0,10.40964 q 0,0.54899 -0.19003,0.95017 -0.19004,0.40118 -0.80237,0.7179 -0.61233,0.29561 -1.58361,0.65456 -0.97128,0.35896 -2.00592,0.61233 -1.03463,0.25338 -2.09037,0.38008 -1.05574,0.12669 -2.09038,0.12669 -3.16722,0 -5.65879,-0.97129 -2.49155,-0.9924 -4.22297,-2.80828 -1.71031,-1.81588 -2.61825,-4.34966 -0.90794,-2.53379 -0.90794,-5.6588 0,-3.25169 0.97128,-5.89105 0.9924,-2.63937 2.76606,-4.49747 1.79476,-1.85811 4.28631,-2.87163 2.51268,-1.03463 5.55322,-1.03463 1.56251,0 2.93497,0.2745 1.37247,0.27448 2.42822,0.65455 1.07686,0.35896 1.79476,0.80237 0.73903,0.4223 1.01352,0.69679 0.27449,0.27449 0.38007,0.63345 0.10557,0.35895 0.10557,1.03463 z" /><path
       inkscape:connector-curvature="0"
       id="path4308"
       style="font-style:normal;font-variant:normal;font-weight:normal;font-stretch:normal;font-size:medium;line-height:125%;font-family:Calibri;-inkscape-font-specification:Calibri;letter-spacing:0px;word-spacing:0px;fill:#017c78;fill-opacity:1;stroke:#017c78;stroke-width:0.99203879;stroke-linecap:butt;stroke-linejoin:miter;stroke-miterlimit:4;stroke-dasharray:none;stroke-opacity:1"
       d="m 327.01111,879.26401 q 0,2.32264 -0.61233,4.28632 -0.61233,1.94258 -1.837,3.35727 -1.20355,1.4147 -3.04054,2.21707 -1.81588,0.78125 -4.22298,0.78125 -2.34375,0 -4.09629,-0.69679 -1.73142,-0.69679 -2.89273,-2.02703 -1.16133,-1.33024 -1.73143,-3.23058 -0.57011,-1.90034 -0.57011,-4.30744 0,-2.32264 0.59123,-4.2652 0.61233,-1.96369 1.81587,-3.37839 1.22467,-1.4147 3.04055,-2.19595 1.81588,-0.78125 4.24409,-0.78125 2.34376,0 4.07518,0.69679 1.75253,0.69679 2.91385,2.02703 1.16132,1.33024 1.73143,3.23058 0.59121,1.90034 0.59121,4.28632 z m -3.67399,0.23227 q 0,-1.54139 -0.29561,-2.91386 -0.2745,-1.37246 -0.92905,-2.4071 -0.65457,-1.03462 -1.77365,-1.62585 -1.1191,-0.61233 -2.78717,-0.61233 -1.54139,0 -2.66048,0.54899 -1.09797,0.54899 -1.81588,1.56251 -0.7179,0.99239 -1.07686,2.36486 -0.33783,1.37247 -0.33783,2.99832 0,1.5625 0.27449,2.93497 0.2956,1.37246 0.95017,2.4071 0.67567,1.01352 1.79477,1.62585 1.11908,0.59121 2.78716,0.59121 1.52027,0 2.63936,-0.54899 1.11909,-0.54899 1.837,-1.54139 0.71791,-0.99239 1.05574,-2.36486 0.33784,-1.37247 0.33784,-3.01943 z" /><path
       inkscape:connector-curvature="0"
       id="path4310"
       style="font-style:normal;font-variant:normal;font-weight:normal;font-stretch:normal;font-size:medium;line-height:125%;font-family:Calibri;-inkscape-font-specification:Calibri;letter-spacing:0px;word-spacing:0px;fill:#017c78;fill-opacity:1;stroke:#017c78;stroke-width:0.99203879;stroke-linecap:butt;stroke-linejoin:miter;stroke-miterlimit:4;stroke-dasharray:none;stroke-opacity:1"
       d="m 348.50608,888.97687 q 0,0.16891 -0.0844,0.2956 -0.0844,0.10557 -0.2745,0.19003 -0.19002,0.0844 -0.52787,0.1267 -0.33784,0.0422 -0.84459,0.0422 -0.52787,0 -0.86571,-0.0422 -0.33784,-0.0422 -0.52788,-0.1267 -0.19003,-0.0844 -0.27449,-0.19003 -0.0844,-0.12669 -0.0844,-0.2956 l 0,-11.12755 q 0,-1.62585 -0.25338,-2.61826 -0.25338,-0.99239 -0.73902,-1.7103 -0.48564,-0.71791 -1.2669,-1.09797 -0.76013,-0.38007 -1.77365,-0.38007 -1.30912,0 -2.61823,0.92906 -1.30914,0.92905 -2.74495,2.72382 l 0,13.28127 q 0,0.16891 -0.0844,0.2956 -0.0844,0.10557 -0.27449,0.19003 -0.19004,0.0844 -0.52787,0.1267 -0.33784,0.0422 -0.86571,0.0422 -0.50676,0 -0.8446,-0.0422 -0.33784,-0.0422 -0.54899,-0.1267 -0.19003,-0.0844 -0.27449,-0.19003 -0.0633,-0.12669 -0.0633,-0.2956 l 0,-19.00341 q 0,-0.16892 0.0633,-0.27449 0.0633,-0.12669 0.25337,-0.21115 0.19004,-0.10557 0.48565,-0.12669 0.29561,-0.0422 0.78125,-0.0422 0.46453,0 0.76014,0.0422 0.31672,0.0211 0.48564,0.12669 0.16892,0.0844 0.23227,0.21115 0.0844,0.10557 0.0844,0.27449 l 0,2.51267 q 1.60473,-1.79476 3.18834,-2.61825 1.60473,-0.84459 3.23058,-0.84459 1.90034,0 3.18835,0.65456 1.30912,0.63345 2.11149,1.71031 0.80237,1.07686 1.1402,2.53379 0.35895,1.43581 0.35895,3.46284 l 0,11.59208 z" /><path
       inkscape:connector-curvature="0"
       id="path4312"
       style="font-style:normal;font-variant:normal;font-weight:normal;font-stretch:normal;font-size:medium;line-height:125%;font-family:Calibri;-inkscape-font-specification:Calibri;letter-spacing:0px;word-spacing:0px;fill:#017c78;fill-opacity:1;stroke:#017c78;stroke-width:0.99203879;stroke-linecap:butt;stroke-linejoin:miter;stroke-miterlimit:4;stroke-dasharray:none;stroke-opacity:1"
       d="m 372.53483,879.26401 q 0,2.32264 -0.61234,4.28632 -0.61233,1.94258 -1.83698,3.35727 -1.20355,1.4147 -3.04057,2.21707 -1.81585,0.78125 -4.22296,0.78125 -2.34376,0 -4.09631,-0.69679 -1.73141,-0.69679 -2.89272,-2.02703 -1.16133,-1.33024 -1.73142,-3.23058 -0.57012,-1.90034 -0.57012,-4.30744 0,-2.32264 0.59125,-4.2652 0.6123,-1.96369 1.81586,-3.37839 1.22467,-1.4147 3.04055,-2.19595 1.81586,-0.78125 4.2441,-0.78125 2.34376,0 4.07517,0.69679 1.75252,0.69679 2.91386,2.02703 1.1613,1.33024 1.73142,3.23058 0.59121,1.90034 0.59121,4.28632 z m -3.674,0.23227 q 0,-1.54139 -0.29559,-2.91386 -0.2745,-1.37246 -0.92908,-2.4071 -0.65456,-1.03462 -1.77364,-1.62585 -1.11909,-0.61233 -2.78716,-0.61233 -1.5414,0 -2.66049,0.54899 -1.09795,0.54899 -1.81588,1.56251 -0.7179,0.99239 -1.07683,2.36486 -0.33785,1.37247 -0.33785,2.99832 0,1.5625 0.27447,2.93497 0.29562,1.37246 0.95018,2.4071 0.67568,1.01352 1.79477,1.62585 1.11907,0.59121 2.78716,0.59121 1.52027,0 2.63938,-0.54899 1.11909,-0.54899 1.83699,-1.54139 0.7179,-0.99239 1.05573,-2.36486 0.33784,-1.37247 0.33784,-3.01943 z" /><path
       inkscape:connector-curvature="0"
       id="path4314"
       style="font-style:normal;font-variant:normal;font-weight:normal;font-stretch:normal;font-size:medium;line-height:125%;font-family:Calibri;-inkscape-font-specification:Calibri;letter-spacing:0px;word-spacing:0px;fill:#017c78;fill-opacity:1;stroke:#017c78;stroke-width:0.99203879;stroke-linecap:butt;stroke-linejoin:miter;stroke-miterlimit:4;stroke-dasharray:none;stroke-opacity:1"
       d="m 388.07538,862.16095 q 0,0.40119 -0.0422,0.65456 -0.0422,0.23227 -0.10559,0.38007 -0.0422,0.1478 -0.12669,0.21115 -0.0844,0.0422 -0.21115,0.0422 -0.14779,0 -0.38006,-0.0844 -0.21116,-0.10558 -0.52787,-0.21115 -0.31672,-0.12668 -0.76016,-0.21115 -0.42227,-0.10557 -0.99239,-0.10557 -0.78124,0 -1.33024,0.25338 -0.54897,0.25337 -0.8868,0.80236 -0.33784,0.52787 -0.48565,1.39358 -0.14782,0.8446 -0.14782,2.06926 l 0,2.06926 4.24409,0 q 0.16894,0 0.2745,0.0844 0.12668,0.0633 0.21115,0.25339 0.10556,0.16892 0.14782,0.44341 0.0633,0.27449 0.0633,0.67567 0,0.76014 -0.19003,1.09798 -0.19003,0.33783 -0.50678,0.33783 l -4.24409,0 0,16.65966 q 0,0.16891 -0.0844,0.2956 -0.0844,0.10557 -0.29559,0.19003 -0.19003,0.0844 -0.52787,0.1267 -0.33784,0.0422 -0.84458,0.0422 -0.50678,0 -0.84462,-0.0422 -0.33784,-0.0422 -0.549,-0.1267 -0.19002,-0.0844 -0.27446,-0.19003 -0.0844,-0.12669 -0.0844,-0.2956 l 0,-16.65966 -2.6816,0 q -0.33784,0 -0.50674,-0.33783 -0.16894,-0.33784 -0.16894,-1.09798 0,-0.40118 0.0422,-0.67567 0.0422,-0.27449 0.12669,-0.44341 0.0844,-0.19004 0.21115,-0.25339 0.12668,-0.0844 0.29559,-0.0844 l 2.6816,0 0,-1.96368 q 0,-1.9848 0.35893,-3.3995 0.3801,-1.43581 1.14022,-2.34376 0.76014,-0.90794 1.90035,-1.33023 1.1613,-0.44341 2.72382,-0.44341 0.73903,0 1.4358,0.1478 0.69681,0.12669 1.07687,0.29561 0.38006,0.1478 0.50674,0.27449 0.12672,0.1267 0.21116,0.33784 0.0844,0.19003 0.10559,0.48564 0.0422,0.2745 0.0422,0.67568 z" /><path
       inkscape:connector-curvature="0"
       id="path4316"
       style="font-style:normal;font-variant:normal;font-weight:normal;font-stretch:normal;font-size:medium;line-height:125%;font-family:Calibri;-inkscape-font-specification:Calibri;letter-spacing:0px;word-spacing:0px;fill:#017c78;fill-opacity:1;stroke:#017c78;stroke-width:0.99203879;stroke-linecap:butt;stroke-linejoin:miter;stroke-miterlimit:4;stroke-dasharray:none;stroke-opacity:1"
       d="m 404.31273,888.99797 q 0,0.25339 -0.1689,0.38007 -0.16894,0.1267 -0.46453,0.19004 -0.29562,0.0633 -0.86572,0.0633 -0.54898,0 -0.88683,-0.0633 -0.31671,-0.0633 -0.46452,-0.19004 -0.14782,-0.12668 -0.14782,-0.38007 l 0,-1.90033 q -1.24577,1.33024 -2.78716,2.06926 -1.52027,0.73902 -3.23057,0.73902 -1.49917,0 -2.72381,-0.40118 -1.20356,-0.38007 -2.06926,-1.1191 -0.84462,-0.73901 -1.33024,-1.81587 -0.46453,-1.07686 -0.46453,-2.44933 0,-1.60473 0.65456,-2.78717 0.65456,-1.18243 1.87923,-1.96368 1.22464,-0.78125 2.99831,-1.16132 1.77365,-0.40118 3.99072,-0.40118 l 2.61823,0 0,-1.47805 q 0,-1.09798 -0.23225,-1.94257 -0.23228,-0.8446 -0.76015,-1.39358 -0.50675,-0.5701 -1.33024,-0.84459 -0.82349,-0.29561 -2.02701,-0.29561 -1.28802,0 -2.32267,0.31673 -1.01349,0.2956 -1.79476,0.67567 -0.76012,0.35895 -1.28799,0.67567 -0.50678,0.29561 -0.76015,0.29561 -0.1689,0 -0.29559,-0.0844 -0.12668,-0.0844 -0.23228,-0.25338 -0.0844,-0.16891 -0.12669,-0.4223 -0.0422,-0.27449 -0.0422,-0.59121 0,-0.52788 0.0633,-0.82349 0.0844,-0.31671 0.35893,-0.59121 0.29563,-0.27449 0.9924,-0.63345 0.6968,-0.38007 1.60473,-0.67567 0.90797,-0.31673 1.9848,-0.50676 1.07687,-0.21115 2.17486,-0.21115 2.04814,0 3.48394,0.46452 1.43583,0.46453 2.32266,1.37247 0.88681,0.88683 1.28798,2.21707 0.40119,1.33023 0.40119,3.10389 l 0,12.81673 z m -3.46284,-8.67821 -2.97719,0 q -1.4358,0 -2.49157,0.25338 -1.05575,0.23226 -1.75252,0.71791 -0.69681,0.46452 -1.03465,1.1402 -0.31672,0.65456 -0.31672,1.52027 0,1.47804 0.92906,2.36486 0.95018,0.86572 2.63935,0.86572 1.37249,0 2.53379,-0.69679 1.18246,-0.6968 2.47045,-2.13261 l 0,-4.03294 z" /><path
       inkscape:connector-curvature="0"
       id="path4318"
       style="font-style:normal;font-variant:normal;font-weight:normal;font-stretch:normal;font-size:medium;line-height:125%;font-family:Calibri;-inkscape-font-specification:Calibri;letter-spacing:0px;word-spacing:0px;fill:#017c78;fill-opacity:1;stroke:#017c78;stroke-width:0.99203879;stroke-linecap:butt;stroke-linejoin:miter;stroke-miterlimit:4;stroke-dasharray:none;stroke-opacity:1"
       d="m 425.00532,888.99797 q 0,0.25339 -0.1689,0.38007 -0.16894,0.1267 -0.46453,0.19004 -0.29562,0.0633 -0.86571,0.0633 -0.549,0 -0.88683,-0.0633 -0.31671,-0.0633 -0.46453,-0.19004 -0.14781,-0.12668 -0.14781,-0.38007 l 0,-1.90033 q -1.24577,1.33024 -2.78716,2.06926 -1.52027,0.73902 -3.23057,0.73902 -1.49917,0 -2.72385,-0.40118 -1.20352,-0.38007 -2.06923,-1.1191 -0.84462,-0.73901 -1.33023,-1.81587 -0.46453,-1.07686 -0.46453,-2.44933 0,-1.60473 0.65455,-2.78717 0.65456,-1.18243 1.87921,-1.96368 1.22467,-0.78125 2.99831,-1.16132 1.77367,-0.40118 3.99072,-0.40118 l 2.61825,0 0,-1.47805 q 0,-1.09798 -0.23224,-1.94257 -0.23229,-0.8446 -0.76016,-1.39358 -0.50674,-0.5701 -1.33023,-0.84459 -0.8235,-0.29561 -2.02705,-0.29561 -1.28799,0 -2.32263,0.31673 -1.01349,0.2956 -1.79477,0.67567 -0.76012,0.35895 -1.28799,0.67567 -0.50677,0.29561 -0.76014,0.29561 -0.16891,0 -0.2956,-0.0844 -0.12671,-0.0844 -0.23227,-0.25338 -0.0844,-0.16891 -0.12669,-0.4223 -0.0422,-0.27449 -0.0422,-0.59121 0,-0.52788 0.0633,-0.82349 0.0844,-0.31671 0.35893,-0.59121 0.29562,-0.27449 0.9924,-0.63345 0.6968,-0.38007 1.60473,-0.67567 0.90796,-0.31673 1.9848,-0.50676 1.07686,-0.21115 2.17485,-0.21115 2.04813,0 3.48394,0.46452 1.43583,0.46453 2.32264,1.37247 0.88683,0.88683 1.28801,2.21707 0.40119,1.33023 0.40119,3.10389 l 0,12.81673 z m -3.46284,-8.67821 -2.97719,0 q -1.43583,0 -2.49157,0.25338 -1.05574,0.23226 -1.75251,0.71791 -0.69681,0.46452 -1.03466,1.1402 -0.31671,0.65456 -0.31671,1.52027 0,1.47804 0.92906,2.36486 0.95017,0.86572 2.63934,0.86572 1.3725,0 2.5338,-0.69679 1.18243,-0.6968 2.47044,-2.13261 l 0,-4.03294 z" /><path
       inkscape:connector-curvature="0"
       id="path4364"
       style="font-style:normal;font-variant:normal;font-weight:normal;font-stretch:normal;font-size:medium;line-height:125%;font-family:Calibri;-inkscape-font-specification:Calibri;letter-spacing:0px;word-spacing:0px;fill:#0b8aac;fill-opacity:1;stroke:#0b8aac;stroke-width:0.49601939px;stroke-linecap:butt;stroke-linejoin:miter;stroke-opacity:1"
       d="m 187.08857,907.58029 q 0,0.0716 -0.0359,0.12544 -0.0359,0.0537 -0.12542,0.0896 -0.0896,0.0269 -0.23295,0.0448 -0.13439,0.0269 -0.35837,0.0269 -0.20606,0 -0.35837,-0.0269 -0.14336,-0.0179 -0.23294,-0.0448 -0.0806,-0.0359 -0.11648,-0.0896 -0.0359,-0.0538 -0.0359,-0.12544 l 0,-10.09717 -0.0179,0 -4.13025,10.14197 q -0.0269,0.0627 -0.0806,0.10752 -0.0448,0.0448 -0.14335,0.0806 -0.0896,0.0269 -0.22399,0.0359 -0.12544,0.0179 -0.30462,0.0179 -0.18814,0 -0.32254,-0.0179 -0.13439,-0.0179 -0.22398,-0.0448 -0.0896,-0.0359 -0.14334,-0.0806 -0.0448,-0.0448 -0.0627,-0.0986 l -3.95108,-10.14197 -0.009,0 0,10.09717 q 0,0.0716 -0.0359,0.12544 -0.0359,0.0537 -0.12543,0.0896 -0.0896,0.0269 -0.23295,0.0448 -0.14334,0.0269 -0.36732,0.0269 -0.21503,0 -0.35838,-0.0269 -0.14335,-0.0179 -0.23294,-0.0448 -0.0806,-0.0359 -0.11647,-0.0896 -0.0269,-0.0538 -0.0269,-0.12544 l 0,-10.66161 q 0,-0.37629 0.19711,-0.53756 0.19711,-0.16126 0.43901,-0.16126 l 0.93177,0 q 0.2867,0 0.50173,0.0538 0.21502,0.0538 0.37628,0.17023 0.16127,0.11648 0.26878,0.29566 0.10752,0.17919 0.18815,0.42109 l 3.35976,8.3949 0.0448,0 3.49414,-8.36802 q 0.0986,-0.26878 0.21502,-0.45693 0.11648,-0.18814 0.25087,-0.29565 0.14335,-0.11647 0.31358,-0.16128 0.17022,-0.0538 0.3942,-0.0538 l 0.97657,0 q 0.13439,0 0.25086,0.0448 0.12543,0.0359 0.20607,0.12543 0.0896,0.0806 0.14335,0.21502 0.0538,0.12543 0.0538,0.31358 l 0,10.66161 z" /><path
       inkscape:connector-curvature="0"
       id="path4366"
       style="font-style:normal;font-variant:normal;font-weight:normal;font-stretch:normal;font-size:medium;line-height:125%;font-family:Calibri;-inkscape-font-specification:Calibri;letter-spacing:0px;word-spacing:0px;fill:#0b8aac;fill-opacity:1;stroke:#0b8aac;stroke-width:0.49601939px;stroke-linecap:butt;stroke-linejoin:miter;stroke-opacity:1"
       d="m 191.4876,907.58925 q 0,0.0716 -0.0359,0.12543 -0.0359,0.0448 -0.11647,0.0806 -0.0806,0.0359 -0.22398,0.0538 -0.14336,0.0179 -0.36734,0.0179 -0.21502,0 -0.35837,-0.0179 -0.14335,-0.0179 -0.23294,-0.0538 -0.0806,-0.0359 -0.11647,-0.0806 -0.0269,-0.0537 -0.0269,-0.12543 l 0,-8.06341 q 0,-0.0627 0.0269,-0.11646 0.0359,-0.0537 0.11647,-0.0896 0.0896,-0.0359 0.23294,-0.0538 0.14335,-0.0179 0.35837,-0.0179 0.22398,0 0.36734,0.0179 0.14335,0.0179 0.22398,0.0538 0.0806,0.0359 0.11647,0.0896 0.0359,0.0538 0.0359,0.11646 l 0,8.06341 z m 0.17023,-10.78704 q 0,0.51964 -0.19711,0.70779 -0.1971,0.18814 -0.7257,0.18814 -0.51964,0 -0.71675,-0.17918 -0.18814,-0.18814 -0.18814,-0.69883 0,-0.51964 0.19711,-0.70779 0.1971,-0.18815 0.7257,-0.18815 0.51964,0 0.70778,0.18815 0.19711,0.17919 0.19711,0.68987 z" /><path
       inkscape:connector-curvature="0"
       id="path4368"
       style="font-style:normal;font-variant:normal;font-weight:normal;font-stretch:normal;font-size:medium;line-height:125%;font-family:Calibri;-inkscape-font-specification:Calibri;letter-spacing:0px;word-spacing:0px;fill:#0b8aac;fill-opacity:1;stroke:#0b8aac;stroke-width:0.49601939px;stroke-linecap:butt;stroke-linejoin:miter;stroke-opacity:1"
       d="m 200.03481,906.36182 q 0,0.15232 -0.009,0.26878 -0.009,0.10752 -0.0359,0.18816 -0.0179,0.0716 -0.0537,0.13438 -0.0269,0.0538 -0.14334,0.17023 -0.10753,0.10751 -0.3763,0.27774 -0.26878,0.16127 -0.60924,0.29566 -0.33149,0.12542 -0.72571,0.20606 -0.39421,0.0806 -0.81529,0.0806 -0.86906,0 -1.54101,-0.2867 -0.67195,-0.2867 -1.12887,-0.83322 -0.44797,-0.55548 -0.68987,-1.35286 -0.23295,-0.80634 -0.23295,-1.85458 0,-1.19159 0.28671,-2.04274 0.29565,-0.86009 0.79737,-1.40661 0.51069,-0.54652 1.1916,-0.80634 0.68986,-0.26878 1.48725,-0.26878 0.38525,0 0.74362,0.0716 0.36733,0.0716 0.67195,0.18815 0.30462,0.11647 0.53756,0.26877 0.2419,0.15232 0.34942,0.25983 0.10751,0.10751 0.14334,0.17023 0.0448,0.0627 0.0716,0.1523 0.0269,0.0806 0.0359,0.18814 0.009,0.10752 0.009,0.26879 0,0.34941 -0.0806,0.49276 -0.0806,0.13439 -0.19711,0.13439 -0.13439,0 -0.31357,-0.14335 -0.17023,-0.1523 -0.43901,-0.3315 -0.26878,-0.17918 -0.65403,-0.32253 -0.37629,-0.15231 -0.89594,-0.15231 -1.06615,0 -1.63956,0.82426 -0.56443,0.8153 -0.56443,2.37422 0,0.77947 0.14335,1.37079 0.1523,0.58235 0.43901,0.97656 0.28669,0.39421 0.69883,0.59132 0.42108,0.18814 0.95864,0.18814 0.51069,0 0.89594,-0.16126 0.38525,-0.16127 0.66299,-0.34942 0.2867,-0.1971 0.47484,-0.34942 0.19711,-0.16126 0.30462,-0.16126 0.0628,0 0.10751,0.0359 0.0448,0.0359 0.0716,0.12542 0.0359,0.0806 0.0448,0.21503 0.0179,0.12543 0.0179,0.30461 z" /><path
       inkscape:connector-curvature="0"
       id="path4370"
       style="font-style:normal;font-variant:normal;font-weight:normal;font-stretch:normal;font-size:medium;line-height:125%;font-family:Calibri;-inkscape-font-specification:Calibri;letter-spacing:0px;word-spacing:0px;fill:#0b8aac;fill-opacity:1;stroke:#0b8aac;stroke-width:0.49601939px;stroke-linecap:butt;stroke-linejoin:miter;stroke-opacity:1"
       d="m 206.72744,900.05445 q 0,0.1971 -0.009,0.33149 -0.009,0.1344 -0.0359,0.21503 -0.0269,0.0716 -0.0716,0.11647 -0.0359,0.0359 -0.10751,0.0359 -0.0716,0 -0.17919,-0.0359 -0.0986,-0.0448 -0.23294,-0.0806 -0.12544,-0.0448 -0.2867,-0.0806 -0.16127,-0.0359 -0.34941,-0.0359 -0.22399,0 -0.43902,0.0896 -0.21502,0.0896 -0.45692,0.29566 -0.23295,0.20606 -0.49276,0.54652 -0.25982,0.34045 -0.57341,0.83321 l 0,5.30393 q 0,0.0716 -0.0359,0.12543 -0.0359,0.0448 -0.11647,0.0806 -0.0806,0.0359 -0.22398,0.0538 -0.14335,0.0179 -0.36734,0.0179 -0.21502,0 -0.35837,-0.0179 -0.14335,-0.0179 -0.23294,-0.0538 -0.0806,-0.0359 -0.11647,-0.0806 -0.0269,-0.0537 -0.0269,-0.12543 l 0,-8.06341 q 0,-0.0716 0.0269,-0.11646 0.0269,-0.0537 0.10751,-0.0896 0.0806,-0.0448 0.20606,-0.0538 0.12544,-0.0179 0.33151,-0.0179 0.19709,0 0.32253,0.0179 0.13439,0.009 0.20606,0.0538 0.0716,0.0359 0.0986,0.0896 0.0359,0.0448 0.0359,0.11646 l 0,1.17368 q 0.3315,-0.4838 0.61819,-0.78842 0.29566,-0.30462 0.55548,-0.47484 0.25983,-0.17919 0.51069,-0.24191 0.25981,-0.0716 0.51963,-0.0716 0.11648,0 0.25983,0.0179 0.1523,0.009 0.31357,0.0448 0.16128,0.0359 0.2867,0.0806 0.13439,0.0448 0.18815,0.0896 0.0537,0.0448 0.0716,0.0896 0.0179,0.0359 0.0269,0.0986 0.0179,0.0627 0.0179,0.18814 0.009,0.11647 0.009,0.32253 z" /><path
       inkscape:connector-curvature="0"
       id="path4372"
       style="font-style:normal;font-variant:normal;font-weight:normal;font-stretch:normal;font-size:medium;line-height:125%;font-family:Calibri;-inkscape-font-specification:Calibri;letter-spacing:0px;word-spacing:0px;fill:#0b8aac;fill-opacity:1;stroke:#0b8aac;stroke-width:0.49601939px;stroke-linecap:butt;stroke-linejoin:miter;stroke-opacity:1"
       d="m 215.64199,903.46796 q 0,0.98553 -0.25983,1.81875 -0.25982,0.82425 -0.77946,1.42452 -0.51068,0.60029 -1.29014,0.94074 -0.7705,0.3315 -1.79188,0.3315 -0.99448,0 -1.73811,-0.29567 -0.73466,-0.29565 -1.22743,-0.86009 -0.49276,-0.56444 -0.73466,-1.37077 -0.24191,-0.80635 -0.24191,-1.82771 0,-0.98553 0.25086,-1.80979 0.25983,-0.83322 0.77052,-1.4335 0.51963,-0.60027 1.29014,-0.93177 0.7705,-0.33149 1.80082,-0.33149 0.99449,0 1.72916,0.29565 0.74362,0.29567 1.23638,0.8601 0.49277,0.56444 0.73467,1.37078 0.25087,0.80634 0.25087,1.81875 z m -1.55893,0.0986 q 0,-0.65404 -0.12543,-1.23639 -0.11647,-0.58236 -0.39421,-1.02136 -0.27774,-0.43901 -0.75259,-0.68987 -0.47484,-0.25983 -1.18263,-0.25983 -0.65403,0 -1.12888,0.23295 -0.46588,0.23295 -0.7705,0.66299 -0.30462,0.42109 -0.45693,1.00345 -0.14334,0.58235 -0.14334,1.27222 0,0.66299 0.11646,1.24535 0.12544,0.58236 0.40317,1.02136 0.2867,0.43005 0.76154,0.68988 0.47485,0.25086 1.18264,0.25086 0.64508,0 1.11991,-0.23295 0.47485,-0.23294 0.77947,-0.65403 0.30461,-0.42108 0.44797,-1.00344 0.14335,-0.58236 0.14335,-1.28119 z" /><path
       inkscape:connector-curvature="0"
       id="path4374"
       style="font-style:normal;font-variant:normal;font-weight:normal;font-stretch:normal;font-size:medium;line-height:125%;font-family:Calibri;-inkscape-font-specification:Calibri;letter-spacing:0px;word-spacing:0px;fill:#0b8aac;fill-opacity:1;stroke:#0b8aac;stroke-width:0.49601939px;stroke-linecap:butt;stroke-linejoin:miter;stroke-opacity:1"
       d="m 224.95969,896.81117 q 0,0.25086 -0.0448,0.42109 -0.0359,0.17022 -0.13439,0.27774 -0.0986,0.0986 -0.27774,0.14335 -0.17023,0.0448 -0.43901,0.0448 -0.25982,0 -0.43901,-0.0448 -0.17022,-0.0448 -0.27774,-0.14335 -0.0985,-0.10752 -0.14334,-0.27774 -0.0448,-0.17023 -0.0448,-0.42109 0,-0.25086 0.0448,-0.41213 0.0448,-0.17023 0.14334,-0.27774 0.10752,-0.11647 0.27774,-0.1523 0.17919,-0.0448 0.43901,-0.0448 0.26878,0 0.43901,0.0448 0.17918,0.0359 0.27774,0.1523 0.0985,0.10751 0.13439,0.27774 0.0448,0.16127 0.0448,0.41213 z m -0.16127,10.77808 q 0,0.0716 -0.0359,0.12543 -0.0359,0.0448 -0.12542,0.0806 -0.0806,0.0359 -0.22398,0.0538 -0.14336,0.0179 -0.35838,0.0179 -0.21502,0 -0.35837,-0.0179 -0.14335,-0.0179 -0.23295,-0.0538 -0.0806,-0.0359 -0.11647,-0.0806 -0.0359,-0.0537 -0.0359,-0.12543 l 0,-7.06891 -3.61958,0 0,7.06891 q 0,0.0716 -0.0359,0.12543 -0.0359,0.0448 -0.12543,0.0806 -0.0806,0.0359 -0.22399,0.0538 -0.14334,0.0179 -0.35837,0.0179 -0.21502,0 -0.35838,-0.0179 -0.14334,-0.0179 -0.23293,-0.0538 -0.0806,-0.0359 -0.11647,-0.0806 -0.0359,-0.0537 -0.0359,-0.12543 l 0,-7.06891 -1.13784,0 q -0.14335,0 -0.21502,-0.14335 -0.0716,-0.14335 -0.0716,-0.46588 0,-0.17023 0.0179,-0.28671 0.0179,-0.11647 0.0537,-0.18814 0.0359,-0.0806 0.0896,-0.10751 0.0538,-0.0359 0.12543,-0.0359 l 1.13783,0 0,-0.86906 q 0,-0.83322 0.16128,-1.42453 0.16127,-0.60028 0.47484,-0.98553 0.32254,-0.38525 0.78842,-0.56443 0.47485,-0.18816 1.08408,-0.18816 0.19711,0 0.39422,0.0179 0.1971,0.0179 0.35837,0.0537 0.16126,0.0359 0.27774,0.0806 0.12542,0.0359 0.17023,0.0806 0.0448,0.0448 0.0716,0.0985 0.0269,0.0448 0.0448,0.11648 0.0179,0.0716 0.0269,0.17918 0.009,0.10752 0.009,0.25982 0,0.28671 -0.0448,0.41213 -0.0448,0.12544 -0.1523,0.12544 -0.0716,0 -0.15231,-0.0269 -0.0716,-0.0359 -0.18815,-0.0716 -0.11647,-0.0359 -0.2867,-0.0627 -0.16126,-0.0359 -0.41213,-0.0359 -0.61819,0 -0.87801,0.45692 -0.25982,0.45693 -0.25982,1.46037 l 0,0.88698 4.6499,0 q 0.23294,0 0.34045,0.12543 0.11647,0.11647 0.11647,0.33149 l 0,7.83943 z" /><path
       inkscape:connector-curvature="0"
       id="path4376"
       style="font-style:normal;font-variant:normal;font-weight:normal;font-stretch:normal;font-size:medium;line-height:125%;font-family:Calibri;-inkscape-font-specification:Calibri;letter-spacing:0px;word-spacing:0px;fill:#0b8aac;fill-opacity:1;stroke:#0b8aac;stroke-width:0.49601939px;stroke-linecap:butt;stroke-linejoin:miter;stroke-opacity:1"
       d="m 234.47451,907.58925 q 0,0.0716 -0.0359,0.12543 -0.0359,0.0448 -0.11647,0.0806 -0.0806,0.0359 -0.22399,0.0538 -0.14335,0.0179 -0.35837,0.0179 -0.22398,0 -0.36734,-0.0179 -0.14335,-0.0179 -0.22398,-0.0538 -0.0806,-0.0359 -0.11647,-0.0806 -0.0359,-0.0537 -0.0359,-0.12543 l 0,-4.72157 q 0,-0.68987 -0.10751,-1.11096 -0.10752,-0.42109 -0.31359,-0.7257 -0.20606,-0.30462 -0.53756,-0.46589 -0.32253,-0.16126 -0.75258,-0.16126 -0.55548,0 -1.11096,0.39421 -0.55548,0.3942 -1.16472,1.15575 l 0,5.63542 q 0,0.0716 -0.0359,0.12543 -0.0359,0.0448 -0.11647,0.0806 -0.0806,0.0359 -0.22398,0.0538 -0.14336,0.0179 -0.36734,0.0179 -0.21502,0 -0.35837,-0.0179 -0.14334,-0.0179 -0.23294,-0.0538 -0.0806,-0.0359 -0.11647,-0.0806 -0.0269,-0.0537 -0.0269,-0.12543 l 0,-8.06341 q 0,-0.0716 0.0269,-0.11646 0.0269,-0.0537 0.10751,-0.0896 0.0806,-0.0448 0.20607,-0.0538 0.12542,-0.0179 0.33149,-0.0179 0.19711,0 0.32253,0.0179 0.13439,0.009 0.20607,0.0538 0.0716,0.0359 0.0985,0.0896 0.0359,0.0448 0.0359,0.11646 l 0,1.06617 q 0.68091,-0.76155 1.35286,-1.11096 0.68091,-0.35837 1.37077,-0.35837 0.80634,0 1.35287,0.27774 0.55548,0.26878 0.89593,0.72571 0.34046,0.45692 0.48381,1.07512 0.1523,0.60923 0.1523,1.46933 l 0,4.91867 z" /><path
       inkscape:connector-curvature="0"
       id="path4378"
       style="font-style:normal;font-variant:normal;font-weight:normal;font-stretch:normal;font-size:medium;line-height:125%;font-family:Calibri;-inkscape-font-specification:Calibri;letter-spacing:0px;word-spacing:0px;fill:#0b8aac;fill-opacity:1;stroke:#0b8aac;stroke-width:0.49601939px;stroke-linecap:butt;stroke-linejoin:miter;stroke-opacity:1"
       d="m 243.2457,907.59821 q 0,0.10752 -0.0716,0.16127 -0.0716,0.0538 -0.19711,0.0806 -0.12543,0.0269 -0.36733,0.0269 -0.23294,0 -0.37629,-0.0269 -0.13439,-0.0269 -0.19711,-0.0806 -0.0627,-0.0537 -0.0627,-0.16127 l 0,-0.80633 q -0.5286,0.56443 -1.18263,0.87801 -0.64507,0.31358 -1.37078,0.31358 -0.63611,0 -1.15575,-0.17023 -0.51069,-0.16127 -0.87801,-0.47485 -0.35838,-0.31358 -0.56444,-0.7705 -0.19711,-0.45693 -0.19711,-1.03929 0,-0.6809 0.27774,-1.18262 0.27774,-0.50173 0.79738,-0.83322 0.51965,-0.3315 1.27222,-0.49277 0.75259,-0.17022 1.69332,-0.17022 l 1.11096,0 0,-0.62716 q 0,-0.46589 -0.0986,-0.82426 -0.0986,-0.35837 -0.32254,-0.59132 -0.21503,-0.2419 -0.56444,-0.35837 -0.34942,-0.12543 -0.86009,-0.12543 -0.54652,0 -0.98554,0.13439 -0.43004,0.12543 -0.76153,0.2867 -0.32255,0.15231 -0.54652,0.2867 -0.21503,0.12543 -0.32254,0.12543 -0.0716,0 -0.12543,-0.0359 -0.0538,-0.0359 -0.0986,-0.10751 -0.0359,-0.0716 -0.0537,-0.17919 -0.0179,-0.11646 -0.0179,-0.25085 0,-0.22399 0.0269,-0.34942 0.0359,-0.13439 0.15231,-0.25086 0.12543,-0.11648 0.42109,-0.26878 0.29565,-0.16127 0.68091,-0.2867 0.38525,-0.13439 0.84218,-0.21502 0.45692,-0.0896 0.92281,-0.0896 0.86905,0 1.47829,0.19711 0.60923,0.1971 0.98553,0.58235 0.37629,0.37629 0.54652,0.94073 0.17022,0.56445 0.17022,1.31703 l 0,5.43831 z m -1.46932,-3.68229 -1.26328,0 q -0.60923,0 -1.05719,0.10751 -0.44797,0.0986 -0.74363,0.30462 -0.29566,0.19711 -0.43901,0.48381 -0.13439,0.27774 -0.13439,0.64508 0,0.62715 0.39421,1.00344 0.40317,0.36733 1.11992,0.36733 0.58235,0 1.07512,-0.29566 0.50173,-0.29565 1.04825,-0.90489 l 0,-1.71124 z" /><path
       inkscape:connector-curvature="0"
       id="path4380"
       style="font-style:normal;font-variant:normal;font-weight:normal;font-stretch:normal;font-size:medium;line-height:125%;font-family:Calibri;-inkscape-font-specification:Calibri;letter-spacing:0px;word-spacing:0px;fill:#0b8aac;fill-opacity:1;stroke:#0b8aac;stroke-width:0.49601939px;stroke-linecap:butt;stroke-linejoin:miter;stroke-opacity:1"
       d="m 252.89491,907.58925 q 0,0.0716 -0.0359,0.12543 -0.0359,0.0448 -0.11647,0.0806 -0.0806,0.0359 -0.22399,0.0538 -0.14335,0.0179 -0.35837,0.0179 -0.22399,0 -0.36734,-0.0179 -0.14335,-0.0179 -0.22398,-0.0538 -0.0806,-0.0359 -0.11648,-0.0806 -0.0359,-0.0537 -0.0359,-0.12543 l 0,-4.72157 q 0,-0.68987 -0.10751,-1.11096 -0.10752,-0.42109 -0.31359,-0.7257 -0.20606,-0.30462 -0.53756,-0.46589 -0.32253,-0.16126 -0.75258,-0.16126 -0.55547,0 -1.11095,0.39421 -0.55548,0.3942 -1.16472,1.15575 l 0,5.63542 q 0,0.0716 -0.0359,0.12543 -0.0359,0.0448 -0.11647,0.0806 -0.0806,0.0359 -0.22399,0.0538 -0.14334,0.0179 -0.36732,0.0179 -0.21503,0 -0.35837,-0.0179 -0.14336,-0.0179 -0.23295,-0.0538 -0.0806,-0.0359 -0.11647,-0.0806 -0.0269,-0.0537 -0.0269,-0.12543 l 0,-8.06341 q 0,-0.0716 0.0269,-0.11646 0.0269,-0.0537 0.10751,-0.0896 0.0806,-0.0448 0.20607,-0.0538 0.12542,-0.0179 0.33149,-0.0179 0.19711,0 0.32253,0.0179 0.13439,0.009 0.20607,0.0538 0.0716,0.0359 0.0985,0.0896 0.0359,0.0448 0.0359,0.11646 l 0,1.06617 q 0.68091,-0.76155 1.35286,-1.11096 0.68091,-0.35837 1.37078,-0.35837 0.80634,0 1.35286,0.27774 0.55548,0.26878 0.89594,0.72571 0.34044,0.45692 0.4838,1.07512 0.15231,0.60923 0.15231,1.46933 l 0,4.91867 z" /><path
       inkscape:connector-curvature="0"
       id="path4382"
       style="font-style:normal;font-variant:normal;font-weight:normal;font-stretch:normal;font-size:medium;line-height:125%;font-family:Calibri;-inkscape-font-specification:Calibri;letter-spacing:0px;word-spacing:0px;fill:#0b8aac;fill-opacity:1;stroke:#0b8aac;stroke-width:0.49601939px;stroke-linecap:butt;stroke-linejoin:miter;stroke-opacity:1"
       d="m 261.38837,906.36182 q 0,0.15232 -0.009,0.26878 -0.009,0.10752 -0.0359,0.18816 -0.0179,0.0716 -0.0538,0.13438 -0.0269,0.0538 -0.14335,0.17023 -0.10751,0.10751 -0.3763,0.27774 -0.26878,0.16127 -0.60923,0.29566 -0.3315,0.12542 -0.7257,0.20606 -0.39421,0.0806 -0.8153,0.0806 -0.86906,0 -1.54101,-0.2867 -0.67195,-0.2867 -1.12888,-0.83322 -0.44797,-0.55548 -0.68987,-1.35286 -0.23294,-0.80634 -0.23294,-1.85458 0,-1.19159 0.2867,-2.04274 0.29565,-0.86009 0.79738,-1.40661 0.51068,-0.54652 1.19159,-0.80634 0.68988,-0.26878 1.48726,-0.26878 0.38524,0 0.74362,0.0716 0.36733,0.0716 0.67195,0.18815 0.30462,0.11647 0.53755,0.26877 0.24191,0.15232 0.34942,0.25983 0.10751,0.10751 0.14336,0.17023 0.0448,0.0627 0.0716,0.1523 0.0269,0.0806 0.0359,0.18814 0.009,0.10752 0.009,0.26879 0,0.34941 -0.0806,0.49276 -0.0806,0.13439 -0.19711,0.13439 -0.13439,0 -0.31357,-0.14335 -0.17023,-0.1523 -0.43901,-0.3315 -0.26879,-0.17918 -0.65404,-0.32253 -0.37628,-0.15231 -0.89592,-0.15231 -1.06617,0 -1.63956,0.82426 -0.56445,0.8153 -0.56445,2.37422 0,0.77947 0.14336,1.37079 0.1523,0.58235 0.439,0.97656 0.2867,0.39421 0.69883,0.59132 0.42109,0.18814 0.95865,0.18814 0.51068,0 0.89593,-0.16126 0.38525,-0.16127 0.66299,-0.34942 0.28671,-0.1971 0.47485,-0.34942 0.1971,-0.16126 0.30462,-0.16126 0.0627,0 0.10751,0.0359 0.0448,0.0359 0.0716,0.12542 0.0359,0.0806 0.0448,0.21503 0.0179,0.12543 0.0179,0.30461 z" /><path
       inkscape:connector-curvature="0"
       id="path4384"
       style="font-style:normal;font-variant:normal;font-weight:normal;font-stretch:normal;font-size:medium;line-height:125%;font-family:Calibri;-inkscape-font-specification:Calibri;letter-spacing:0px;word-spacing:0px;fill:#0b8aac;fill-opacity:1;stroke:#0b8aac;stroke-width:0.49601939px;stroke-linecap:butt;stroke-linejoin:miter;stroke-opacity:1"
       d="m 270.24915,903.20814 q 0,0.34941 -0.17919,0.50172 -0.17023,0.14335 -0.39421,0.14335 l -5.28601,0 q 0,0.67195 0.13439,1.20951 0.13439,0.53756 0.44797,0.92282 0.31358,0.38525 0.8153,0.59131 0.50171,0.20607 1.22742,0.20607 0.57341,0 1.02137,-0.0896 0.44796,-0.0986 0.77051,-0.21502 0.33149,-0.11648 0.53755,-0.20607 0.21503,-0.0985 0.32254,-0.0985 0.0628,0 0.10751,0.0359 0.0538,0.0269 0.0806,0.0896 0.0269,0.0627 0.0359,0.1792 0.0179,0.10751 0.0179,0.26878 0,0.11647 -0.009,0.20606 -0.009,0.0806 -0.0269,0.15231 -0.009,0.0627 -0.0448,0.11647 -0.0269,0.0538 -0.0806,0.10751 -0.0448,0.0448 -0.2867,0.16127 -0.2419,0.10751 -0.62715,0.21502 -0.38526,0.10751 -0.89593,0.18815 -0.50173,0.0896 -1.07512,0.0896 -0.9945,0 -1.74707,-0.27774 -0.74364,-0.27774 -1.25431,-0.82427 -0.51069,-0.54651 -0.7705,-1.37077 -0.25983,-0.82427 -0.25983,-1.9173 0,-1.03929 0.26878,-1.86354 0.26878,-0.83322 0.7705,-1.40662 0.51069,-0.58235 1.22743,-0.88697 0.71675,-0.31358 1.60372,-0.31358 0.94969,0 1.61268,0.30462 0.67195,0.30461 1.10201,0.82425 0.43004,0.51069 0.62715,1.20952 0.20607,0.68987 0.20607,1.47828 l 0,0.26879 z m -1.48726,-0.439 q 0.0269,-1.16472 -0.51964,-1.82772 -0.53756,-0.66299 -1.60372,-0.66299 -0.54651,0 -0.95865,0.20607 -0.41213,0.20606 -0.68987,0.54652 -0.27774,0.34046 -0.43004,0.79737 -0.15231,0.44797 -0.17023,0.94075 l 4.37215,0 z" /><path
       inkscape:connector-curvature="0"
       id="path4386"
       style="font-style:normal;font-variant:normal;font-weight:normal;font-stretch:normal;font-size:medium;line-height:125%;font-family:Calibri;-inkscape-font-specification:Calibri;letter-spacing:0px;word-spacing:0px;fill:#0b8aac;fill-opacity:1;stroke:#0b8aac;stroke-width:0.49601939px;stroke-linecap:butt;stroke-linejoin:miter;stroke-opacity:1"
       d="m 283.061,904.561 q 0,0.8153 -0.30462,1.45141 -0.29565,0.63612 -0.83321,1.08408 -0.52861,0.43901 -1.25431,0.66299 -0.71675,0.22399 -1.54997,0.22399 -0.58235,0 -1.08408,-0.0986 -0.49276,-0.0986 -0.88697,-0.2419 -0.38525,-0.14335 -0.65403,-0.29565 -0.25982,-0.15232 -0.36733,-0.25983 -0.0986,-0.10751 -0.15232,-0.26877 -0.0448,-0.17023 -0.0448,-0.44797 0,-0.19711 0.0179,-0.32254 0.0179,-0.13439 0.0538,-0.21503 0.0359,-0.0806 0.0896,-0.10751 0.0538,-0.0359 0.12544,-0.0359 0.12542,0 0.34941,0.15231 0.23294,0.15231 0.59132,0.3315 0.35837,0.17919 0.86009,0.34046 0.51068,0.1523 1.17367,0.1523 0.50172,0 0.91386,-0.13439 0.42108,-0.13439 0.71675,-0.37628 0.30462,-0.25087 0.46588,-0.60924 0.16127,-0.35837 0.16127,-0.8153 0,-0.49277 -0.22399,-0.84218 -0.22398,-0.34942 -0.59131,-0.60924 -0.36733,-0.26878 -0.84218,-0.4838 -0.46588,-0.22398 -0.95865,-0.44797 -0.49276,-0.23294 -0.95865,-0.51068 -0.46588,-0.27774 -0.83321,-0.65403 -0.36734,-0.3763 -0.60028,-0.87801 -0.22398,-0.51069 -0.22398,-1.21848 0,-0.7257 0.25981,-1.29014 0.26879,-0.57339 0.73467,-0.95865 0.47485,-0.38526 1.11992,-0.58236 0.65403,-0.20606 1.40662,-0.20606 0.38525,0 0.7705,0.0716 0.39421,0.0627 0.73467,0.17918 0.34941,0.10751 0.61819,0.25086 0.26878,0.13439 0.34942,0.22399 0.0896,0.0806 0.11646,0.13438 0.0269,0.0448 0.0448,0.12544 0.0179,0.0716 0.0269,0.17918 0.009,0.10751 0.009,0.27774 0,0.16127 -0.0179,0.2867 -0.009,0.12543 -0.0359,0.21503 -0.0269,0.0806 -0.0806,0.12543 -0.0448,0.0359 -0.10751,0.0359 -0.0985,0 -0.31357,-0.12542 -0.20607,-0.12544 -0.51069,-0.27774 -0.30462,-0.16128 -0.72571,-0.28671 -0.41213,-0.13438 -0.93176,-0.13438 -0.48381,0 -0.84219,0.13438 -0.35837,0.12543 -0.59132,0.34046 -0.23293,0.21503 -0.3494,0.51068 -0.11648,0.29566 -0.11648,0.62716 0,0.4838 0.22398,0.83322 0.22399,0.34941 0.59133,0.61818 0.37628,0.26879 0.85113,0.49277 0.47485,0.22399 0.96761,0.45693 0.49276,0.22398 0.9676,0.50172 0.47485,0.26878 0.84218,0.64507 0.37629,0.36734 0.60028,0.87802 0.23294,0.50172 0.23294,1.19159 z" /><path
       inkscape:connector-curvature="0"
       id="path4388"
       style="font-style:normal;font-variant:normal;font-weight:normal;font-stretch:normal;font-size:medium;line-height:125%;font-family:Calibri;-inkscape-font-specification:Calibri;letter-spacing:0px;word-spacing:0px;fill:#0b8aac;fill-opacity:1;stroke:#0b8aac;stroke-width:0.49601939px;stroke-linecap:butt;stroke-linejoin:miter;stroke-opacity:1"
       d="m 292.0293,907.58925 q 0,0.0716 -0.0359,0.12543 -0.0359,0.0448 -0.11647,0.0806 -0.0806,0.0359 -0.22398,0.0538 -0.14335,0.0179 -0.35838,0.0179 -0.22398,0 -0.36733,-0.0179 -0.14335,-0.0179 -0.22398,-0.0538 -0.0806,-0.0359 -0.11647,-0.0806 -0.0359,-0.0537 -0.0359,-0.12543 l 0,-4.72157 q 0,-0.68987 -0.10751,-1.11096 -0.10752,-0.42109 -0.31357,-0.7257 -0.20607,-0.30462 -0.53757,-0.46589 -0.32253,-0.16126 -0.75259,-0.16126 -0.55547,0 -1.11095,0.39421 -0.55548,0.3942 -1.16472,1.15575 l 0,5.63542 q 0,0.0716 -0.0359,0.12543 -0.0359,0.0448 -0.11647,0.0806 -0.0806,0.0359 -0.22398,0.0538 -0.14335,0.0179 -0.36734,0.0179 -0.21502,0 -0.35837,-0.0179 -0.14335,-0.0179 -0.23295,-0.0538 -0.0806,-0.0359 -0.11646,-0.0806 -0.0269,-0.0537 -0.0269,-0.12543 l 0,-11.96967 q 0,-0.0716 0.0269,-0.12543 0.0359,-0.0538 0.11646,-0.0896 0.0896,-0.0359 0.23295,-0.0537 0.14335,-0.0179 0.35837,-0.0179 0.22399,0 0.36734,0.0179 0.14335,0.0179 0.22398,0.0537 0.0806,0.0359 0.11647,0.0896 0.0359,0.0537 0.0359,0.12543 l 0,4.82908 q 0.63612,-0.67195 1.28119,-0.99449 0.64508,-0.33149 1.2991,-0.33149 0.80635,0 1.35286,0.27774 0.55548,0.26878 0.89594,0.72571 0.34045,0.45692 0.48381,1.07512 0.1523,0.60923 0.1523,1.47829 l 0,4.90971 z" /><path
       inkscape:connector-curvature="0"
       id="path4390"
       style="font-style:normal;font-variant:normal;font-weight:normal;font-stretch:normal;font-size:medium;line-height:125%;font-family:Calibri;-inkscape-font-specification:Calibri;letter-spacing:0px;word-spacing:0px;fill:#0b8aac;fill-opacity:1;stroke:#0b8aac;stroke-width:0.49601939px;stroke-linecap:butt;stroke-linejoin:miter;stroke-opacity:1"
       d="m 300.8005,907.59821 q 0,0.10752 -0.0716,0.16127 -0.0716,0.0538 -0.19711,0.0806 -0.12543,0.0269 -0.36733,0.0269 -0.23294,0 -0.37629,-0.0269 -0.13439,-0.0269 -0.19711,-0.0806 -0.0627,-0.0537 -0.0627,-0.16127 l 0,-0.80633 q -0.5286,0.56443 -1.18263,0.87801 -0.64507,0.31358 -1.37078,0.31358 -0.63611,0 -1.15575,-0.17023 -0.51069,-0.16127 -0.87802,-0.47485 -0.35837,-0.31358 -0.56443,-0.7705 -0.19711,-0.45693 -0.19711,-1.03929 0,-0.6809 0.27774,-1.18262 0.27774,-0.50173 0.79738,-0.83322 0.51964,-0.3315 1.27222,-0.49277 0.75259,-0.17022 1.69332,-0.17022 l 1.11096,0 0,-0.62716 q 0,-0.46589 -0.0985,-0.82426 -0.0986,-0.35837 -0.32254,-0.59132 -0.21503,-0.2419 -0.56444,-0.35837 -0.34942,-0.12543 -0.8601,-0.12543 -0.54652,0 -0.98553,0.13439 -0.43004,0.12543 -0.76154,0.2867 -0.32254,0.15231 -0.54652,0.2867 -0.21502,0.12543 -0.32253,0.12543 -0.0716,0 -0.12544,-0.0359 -0.0537,-0.0359 -0.0985,-0.10751 -0.0359,-0.0716 -0.0537,-0.17919 -0.0179,-0.11646 -0.0179,-0.25085 0,-0.22399 0.0269,-0.34942 0.0359,-0.13439 0.15231,-0.25086 0.12543,-0.11648 0.42108,-0.26878 0.29567,-0.16127 0.68092,-0.2867 0.38525,-0.13439 0.84218,-0.21502 0.45692,-0.0896 0.9228,-0.0896 0.86906,0 1.47829,0.19711 0.60924,0.1971 0.98553,0.58235 0.3763,0.37629 0.54652,0.94073 0.17023,0.56445 0.17023,1.31703 l 0,5.43831 z m -1.46933,-3.68229 -1.26328,0 q -0.60923,0 -1.0572,0.10751 -0.44797,0.0986 -0.74362,0.30462 -0.29566,0.19711 -0.43901,0.48381 -0.13439,0.27774 -0.13439,0.64508 0,0.62715 0.39421,1.00344 0.40317,0.36733 1.11992,0.36733 0.58235,0 1.07512,-0.29566 0.50172,-0.29565 1.04825,-0.90489 l 0,-1.71124 z" /><path
       inkscape:connector-curvature="0"
       id="path4392"
       style="font-style:normal;font-variant:normal;font-weight:normal;font-stretch:normal;font-size:medium;line-height:125%;font-family:Calibri;-inkscape-font-specification:Calibri;letter-spacing:0px;word-spacing:0px;fill:#0b8aac;fill-opacity:1;stroke:#0b8aac;stroke-width:0.49601939px;stroke-linecap:butt;stroke-linejoin:miter;stroke-opacity:1"
       d="m 308.21882,900.05445 q 0,0.1971 -0.009,0.33149 -0.009,0.1344 -0.0359,0.21503 -0.0269,0.0716 -0.0716,0.11647 -0.0359,0.0359 -0.10751,0.0359 -0.0716,0 -0.17919,-0.0359 -0.0985,-0.0448 -0.23294,-0.0806 -0.12544,-0.0448 -0.2867,-0.0806 -0.16127,-0.0359 -0.34941,-0.0359 -0.22399,0 -0.43901,0.0896 -0.21503,0.0896 -0.45693,0.29566 -0.23294,0.20606 -0.49276,0.54652 -0.25982,0.34045 -0.5734,0.83321 l 0,5.30393 q 0,0.0716 -0.0359,0.12543 -0.0359,0.0448 -0.11648,0.0806 -0.0806,0.0359 -0.22398,0.0538 -0.14335,0.0179 -0.36734,0.0179 -0.21502,0 -0.35837,-0.0179 -0.14334,-0.0179 -0.23294,-0.0538 -0.0806,-0.0359 -0.11647,-0.0806 -0.0269,-0.0537 -0.0269,-0.12543 l 0,-8.06341 q 0,-0.0716 0.0269,-0.11646 0.0269,-0.0537 0.10751,-0.0896 0.0806,-0.0448 0.20607,-0.0538 0.12543,-0.0179 0.3315,-0.0179 0.1971,0 0.32253,0.0179 0.13439,0.009 0.20607,0.0538 0.0716,0.0359 0.0985,0.0896 0.0359,0.0448 0.0359,0.11646 l 0,1.17368 q 0.33149,-0.4838 0.61818,-0.78842 0.29567,-0.30462 0.55548,-0.47484 0.25983,-0.17919 0.51069,-0.24191 0.25982,-0.0716 0.51964,-0.0716 0.11647,0 0.25982,0.0179 0.1523,0.009 0.31358,0.0448 0.16127,0.0359 0.28669,0.0806 0.13439,0.0448 0.18815,0.0896 0.0537,0.0448 0.0716,0.0896 0.0179,0.0359 0.0269,0.0986 0.0179,0.0627 0.0179,0.18814 0.009,0.11647 0.009,0.32253 z" /><path
       inkscape:connector-curvature="0"
       id="path4394"
       style="font-style:normal;font-variant:normal;font-weight:normal;font-stretch:normal;font-size:medium;line-height:125%;font-family:Calibri;-inkscape-font-specification:Calibri;letter-spacing:0px;word-spacing:0px;fill:#0b8aac;fill-opacity:1;stroke:#0b8aac;stroke-width:0.49601939px;stroke-linecap:butt;stroke-linejoin:miter;stroke-opacity:1"
       d="m 316.55101,903.20814 q 0,0.34941 -0.17919,0.50172 -0.17022,0.14335 -0.39421,0.14335 l -5.28601,0 q 0,0.67195 0.13439,1.20951 0.13439,0.53756 0.44796,0.92282 0.31359,0.38525 0.81531,0.59131 0.50172,0.20607 1.22743,0.20607 0.57339,0 1.02136,-0.0896 0.44797,-0.0986 0.7705,-0.21502 0.3315,-0.11648 0.53757,-0.20607 0.21502,-0.0985 0.32253,-0.0985 0.0628,0 0.10751,0.0359 0.0538,0.0269 0.0806,0.0896 0.0269,0.0627 0.0359,0.1792 0.0179,0.10751 0.0179,0.26878 0,0.11647 -0.009,0.20606 -0.009,0.0806 -0.0269,0.15231 -0.009,0.0627 -0.0448,0.11647 -0.0269,0.0538 -0.0806,0.10751 -0.0448,0.0448 -0.2867,0.16127 -0.2419,0.10751 -0.62715,0.21502 -0.38525,0.10751 -0.89594,0.18815 -0.50172,0.0896 -1.07512,0.0896 -0.99448,0 -1.74707,-0.27774 -0.74362,-0.27774 -1.25431,-0.82427 -0.51068,-0.54651 -0.7705,-1.37077 -0.25982,-0.82427 -0.25982,-1.9173 0,-1.03929 0.26877,-1.86354 0.26879,-0.83322 0.77052,-1.40662 0.51067,-0.58235 1.22742,-0.88697 0.71675,-0.31358 1.60373,-0.31358 0.94968,0 1.61268,0.30462 0.67194,0.30461 1.102,0.82425 0.43004,0.51069 0.62715,1.20952 0.20607,0.68987 0.20607,1.47828 l 0,0.26879 z m -1.48725,-0.439 q 0.0269,-1.16472 -0.51965,-1.82772 -0.53755,-0.66299 -1.60372,-0.66299 -0.54651,0 -0.95864,0.20607 -0.41213,0.20606 -0.68987,0.54652 -0.27774,0.34046 -0.43005,0.79737 -0.15231,0.44797 -0.17023,0.94075 l 4.37216,0 z" /><path
       inkscape:connector-curvature="0"
       id="path4396"
       style="font-style:normal;font-variant:normal;font-weight:normal;font-stretch:normal;font-size:medium;line-height:125%;font-family:Calibri;-inkscape-font-specification:Calibri;letter-spacing:0px;word-spacing:0px;fill:#0b8aac;fill-opacity:1;stroke:#0b8aac;stroke-width:0.49601939px;stroke-linecap:butt;stroke-linejoin:miter;stroke-opacity:1"
       d="m 330.87699,906.17368 q 0,0.14335 -0.009,0.25086 -0.009,0.10751 -0.0359,0.18815 -0.0179,0.0806 -0.0537,0.14335 -0.0359,0.0627 -0.12544,0.1523 -0.0896,0.0896 -0.37628,0.27774 -0.28671,0.17919 -0.71675,0.35837 -0.42109,0.17023 -0.97657,0.2867 -0.54652,0.12544 -1.20055,0.12544 -1.12888,0 -2.04273,-0.3763 -0.9049,-0.37628 -1.54996,-1.11096 -0.63612,-0.73466 -0.98554,-1.80978 -0.34045,-1.08408 -0.34045,-2.4907 0,-1.44245 0.36733,-2.57133 0.3763,-1.12887 1.04824,-1.90833 0.67195,-0.78843 1.60373,-1.20055 0.94073,-0.41213 2.07857,-0.41213 0.50172,0 0.97656,0.0985 0.47484,0.0896 0.87802,0.23295 0.40317,0.14335 0.71674,0.33149 0.31359,0.18815 0.43005,0.31359 0.12543,0.11646 0.16127,0.17918 0.0359,0.0627 0.0538,0.15231 0.0269,0.0806 0.0359,0.1971 0.0179,0.11647 0.0179,0.27774 0,0.17919 -0.0179,0.30462 -0.0179,0.12543 -0.0538,0.21503 -0.0359,0.0806 -0.0896,0.12542 -0.0448,0.0359 -0.11647,0.0359 -0.12543,0 -0.34941,-0.17023 -0.22399,-0.17919 -0.58236,-0.38525 -0.34941,-0.21502 -0.8601,-0.38525 -0.50172,-0.17919 -1.2095,-0.17919 -0.77052,0 -1.40663,0.31358 -0.62715,0.30462 -1.07511,0.90489 -0.44798,0.60028 -0.69883,1.46933 -0.24191,0.8601 -0.24191,1.97106 0,1.102 0.23295,1.95314 0.2419,0.84217 0.68091,1.41557 0.44796,0.56443 1.09304,0.8601 0.64506,0.28669 1.46037,0.28669 0.68987,0 1.20055,-0.17022 0.51964,-0.17023 0.87801,-0.37629 0.36734,-0.21503 0.60028,-0.38526 0.23294,-0.17022 0.36733,-0.17022 0.0627,0 0.10751,0.0269 0.0448,0.0269 0.0716,0.10751 0.0269,0.0716 0.0359,0.20607 0.0179,0.13439 0.0179,0.34045 z" /><path
       inkscape:connector-curvature="0"
       id="path4398"
       style="font-style:normal;font-variant:normal;font-weight:normal;font-stretch:normal;font-size:medium;line-height:125%;font-family:Calibri;-inkscape-font-specification:Calibri;letter-spacing:0px;word-spacing:0px;fill:#0b8aac;fill-opacity:1;stroke:#0b8aac;stroke-width:0.49601939px;stroke-linecap:butt;stroke-linejoin:miter;stroke-opacity:1"
       d="m 340.24846,903.46796 q 0,0.98553 -0.25983,1.81875 -0.25981,0.82425 -0.77946,1.42452 -0.51068,0.60029 -1.29014,0.94074 -0.7705,0.3315 -1.79187,0.3315 -0.99449,0 -1.73811,-0.29567 -0.73466,-0.29565 -1.22743,-0.86009 -0.49276,-0.56444 -0.73466,-1.37077 -0.2419,-0.80635 -0.2419,-1.82771 0,-0.98553 0.25085,-1.80979 0.25982,-0.83322 0.77051,-1.4335 0.51964,-0.60027 1.29014,-0.93177 0.7705,-0.33149 1.80083,-0.33149 0.99448,0 1.72915,0.29565 0.74363,0.29567 1.23639,0.8601 0.49277,0.56444 0.73467,1.37078 0.25086,0.80634 0.25086,1.81875 z m -1.55893,0.0986 q 0,-0.65404 -0.12542,-1.23639 -0.11648,-0.58236 -0.39422,-1.02136 -0.27774,-0.43901 -0.75258,-0.68987 -0.47485,-0.25983 -1.18263,-0.25983 -0.65404,0 -1.12888,0.23295 -0.46589,0.23295 -0.7705,0.66299 -0.30462,0.42109 -0.45693,1.00345 -0.14335,0.58235 -0.14335,1.27222 0,0.66299 0.11646,1.24535 0.12544,0.58236 0.40318,1.02136 0.2867,0.43005 0.76154,0.68988 0.47485,0.25086 1.18264,0.25086 0.64507,0 1.11991,-0.23295 0.47485,-0.23294 0.77946,-0.65403 0.30462,-0.42108 0.44797,-1.00344 0.14335,-0.58236 0.14335,-1.28119 z" /><path
       inkscape:connector-curvature="0"
       id="path4400"
       style="font-style:normal;font-variant:normal;font-weight:normal;font-stretch:normal;font-size:medium;line-height:125%;font-family:Calibri;-inkscape-font-specification:Calibri;letter-spacing:0px;word-spacing:0px;fill:#0b8aac;fill-opacity:1;stroke:#0b8aac;stroke-width:0.49601939px;stroke-linecap:butt;stroke-linejoin:miter;stroke-opacity:1"
       d="m 354.38627,907.58925 q 0,0.0716 -0.0359,0.12543 -0.0359,0.0448 -0.1165,0.0806 -0.0806,0.0359 -0.22395,0.0538 -0.14337,0.0179 -0.35837,0.0179 -0.22399,0 -0.36735,-0.0179 -0.14334,-0.0179 -0.23294,-0.0538 -0.0806,-0.0359 -0.11646,-0.0806 -0.0359,-0.0537 -0.0359,-0.12543 l 0,-4.90076 q 0,-0.51068 -0.0896,-0.93177 -0.0896,-0.42109 -0.28671,-0.7257 -0.19708,-0.30462 -0.50172,-0.46589 -0.30463,-0.16126 -0.71674,-0.16126 -0.5107,0 -1.03032,0.39421 -0.51069,0.3942 -1.12888,1.15575 l 0,5.63542 q 0,0.0716 -0.0359,0.12543 -0.0359,0.0448 -0.12542,0.0806 -0.0806,0.0359 -0.22399,0.0538 -0.14335,0.0179 -0.35837,0.0179 -0.20607,0 -0.35838,-0.0179 -0.14335,-0.0179 -0.23294,-0.0538 -0.0806,-0.0359 -0.11647,-0.0806 -0.0269,-0.0537 -0.0269,-0.12543 l 0,-4.90076 q 0,-0.51068 -0.0985,-0.93177 -0.0986,-0.42109 -0.29567,-0.7257 -0.1971,-0.30462 -0.50172,-0.46589 -0.29566,-0.16126 -0.70779,-0.16126 -0.51068,0 -1.03032,0.39421 -0.51964,0.3942 -1.12888,1.15575 l 0,5.63542 q 0,0.0716 -0.0359,0.12543 -0.0359,0.0448 -0.11646,0.0806 -0.0806,0.0359 -0.22398,0.0538 -0.14335,0.0179 -0.36734,0.0179 -0.21502,0 -0.35837,-0.0179 -0.14335,-0.0179 -0.23295,-0.0538 -0.0806,-0.0359 -0.11647,-0.0806 -0.0269,-0.0537 -0.0269,-0.12543 l 0,-8.06341 q 0,-0.0716 0.0269,-0.11646 0.0269,-0.0537 0.10751,-0.0896 0.0806,-0.0448 0.20607,-0.0538 0.12543,-0.0179 0.33149,-0.0179 0.19711,0 0.32254,0.0179 0.1344,0.009 0.20607,0.0538 0.0716,0.0359 0.0985,0.0896 0.0359,0.0448 0.0359,0.11646 l 0,1.06617 q 0.68091,-0.76155 1.31702,-1.11096 0.64508,-0.35837 1.29912,-0.35837 0.50172,0 0.89592,0.11647 0.40318,0.11648 0.70779,0.3315 0.30462,0.20606 0.51964,0.50172 0.21502,0.28669 0.35838,0.64507 0.40317,-0.43901 0.76154,-0.74363 0.36733,-0.30461 0.69883,-0.49276 0.34043,-0.18814 0.65401,-0.26877 0.32256,-0.0896 0.64509,-0.0896 0.77947,0 1.30805,0.27774 0.52862,0.26878 0.85114,0.72571 0.33151,0.45692 0.4659,1.07512 0.14333,0.60923 0.14333,1.29013 l 0,5.09787 z" /><path
       inkscape:connector-curvature="0"
       id="path4402"
       style="font-style:normal;font-variant:normal;font-weight:normal;font-stretch:normal;font-size:medium;line-height:125%;font-family:Calibri;-inkscape-font-specification:Calibri;letter-spacing:0px;word-spacing:0px;fill:#0b8aac;fill-opacity:1;stroke:#0b8aac;stroke-width:0.49601939px;stroke-linecap:butt;stroke-linejoin:miter;stroke-opacity:1"
       d="m 364.5014,903.43213 q 0,1.0572 -0.23297,1.89937 -0.22398,0.84218 -0.67192,1.4335 -0.43902,0.58236 -1.09304,0.90489 -0.65404,0.31358 -1.49623,0.31358 -0.35837,0 -0.66297,-0.0716 -0.30463,-0.0716 -0.60029,-0.22399 -0.2867,-0.15231 -0.57338,-0.38525 -0.28671,-0.23294 -0.60923,-0.54651 l 0,4.03169 q 0,0.0716 -0.0359,0.12544 -0.0359,0.0537 -0.11647,0.0896 -0.0807,0.0359 -0.22398,0.0538 -0.14337,0.0179 -0.36735,0.0179 -0.21501,0 -0.35838,-0.0179 -0.14334,-0.0179 -0.23293,-0.0538 -0.0806,-0.0359 -0.11647,-0.0896 -0.027,-0.0538 -0.027,-0.12544 l 0,-11.26189 q 0,-0.0806 0.027,-0.12542 0.027,-0.0538 0.10752,-0.0896 0.0806,-0.0359 0.20606,-0.0448 0.12542,-0.0179 0.3046,-0.0179 0.18817,0 0.30463,0.0179 0.12544,0.009 0.20607,0.0448 0.0806,0.0359 0.10751,0.0896 0.0359,0.0448 0.0359,0.12542 l 0,1.08409 q 0.36732,-0.37629 0.70777,-0.65403 0.34046,-0.27774 0.6809,-0.45693 0.34944,-0.18815 0.70781,-0.27774 0.36732,-0.0986 0.77049,-0.0986 0.87801,0 1.49622,0.34045 0.61818,0.34045 1.00343,0.93177 0.39423,0.59132 0.57341,1.37974 0.17919,0.77946 0.17919,1.65748 z m -1.55895,0.17022 q 0,-0.61819 -0.0985,-1.1916 -0.0896,-0.58236 -0.32253,-1.03031 -0.22399,-0.44797 -0.60923,-0.71676 -0.38528,-0.26878 -0.95866,-0.26878 -0.28671,0 -0.56444,0.0896 -0.27776,0.0806 -0.56443,0.26878 -0.2867,0.17919 -0.60029,0.48381 -0.31358,0.29565 -0.66297,0.73466 l 0,3.20745 q 0.60923,0.74362 1.15574,1.13783 0.54651,0.39421 1.1468,0.39421 0.55548,0 0.94968,-0.26878 0.40317,-0.26878 0.64507,-0.71675 0.25086,-0.44797 0.36733,-1.00344 0.11646,-0.55549 0.11646,-1.11992 z" /><path
       inkscape:connector-curvature="0"
       id="path4404"
       style="font-style:normal;font-variant:normal;font-weight:normal;font-stretch:normal;font-size:medium;line-height:125%;font-family:Calibri;-inkscape-font-specification:Calibri;letter-spacing:0px;word-spacing:0px;fill:#0b8aac;fill-opacity:1;stroke:#0b8aac;stroke-width:0.49601939px;stroke-linecap:butt;stroke-linejoin:miter;stroke-opacity:1"
       d="m 372.79774,907.59821 q 0,0.10752 -0.0716,0.16127 -0.0717,0.0538 -0.19711,0.0806 -0.12544,0.0269 -0.36735,0.0269 -0.23294,0 -0.37627,-0.0269 -0.13439,-0.0269 -0.19712,-0.0806 -0.0627,-0.0537 -0.0627,-0.16127 l 0,-0.80633 q -0.52859,0.56443 -1.18261,0.87801 -0.64509,0.31358 -1.37078,0.31358 -0.63614,0 -1.15577,-0.17023 -0.5107,-0.16127 -0.87802,-0.47485 -0.35838,-0.31358 -0.56443,-0.7705 -0.19712,-0.45693 -0.19712,-1.03929 0,-0.6809 0.27776,-1.18262 0.27773,-0.50173 0.79737,-0.83322 0.51963,-0.3315 1.27223,-0.49277 0.75257,-0.17022 1.69331,-0.17022 l 1.11094,0 0,-0.62716 q 0,-0.46589 -0.0985,-0.82426 -0.0986,-0.35837 -0.32253,-0.59132 -0.21504,-0.2419 -0.56443,-0.35837 -0.34944,-0.12543 -0.86012,-0.12543 -0.54652,0 -0.98554,0.13439 -0.43004,0.12543 -0.76151,0.2867 -0.32256,0.15231 -0.54655,0.2867 -0.215,0.12543 -0.32252,0.12543 -0.0716,0 -0.12544,-0.0359 -0.0537,-0.0359 -0.0985,-0.10751 -0.0359,-0.0716 -0.0538,-0.17919 -0.018,-0.11646 -0.018,-0.25085 0,-0.22399 0.027,-0.34942 0.0359,-0.13439 0.15231,-0.25086 0.12542,-0.11648 0.42107,-0.26878 0.29569,-0.16127 0.68094,-0.2867 0.38524,-0.13439 0.84215,-0.21502 0.45695,-0.0896 0.92281,-0.0896 0.86907,0 1.4783,0.19711 0.60924,0.1971 0.98553,0.58235 0.37631,0.37629 0.54652,0.94073 0.17023,0.56445 0.17023,1.31703 l 0,5.43831 z m -1.46935,-3.68229 -1.26326,0 q -0.60923,0 -1.0572,0.10751 -0.44796,0.0986 -0.74362,0.30462 -0.29565,0.19711 -0.43899,0.48381 -0.13439,0.27774 -0.13439,0.64508 0,0.62715 0.39419,1.00344 0.40317,0.36733 1.11992,0.36733 0.58236,0 1.07512,-0.29566 0.50172,-0.29565 1.04823,-0.90489 l 0,-1.71124 z" /><path
       inkscape:connector-curvature="0"
       id="path4406"
       style="font-style:normal;font-variant:normal;font-weight:normal;font-stretch:normal;font-size:medium;line-height:125%;font-family:Calibri;-inkscape-font-specification:Calibri;letter-spacing:0px;word-spacing:0px;fill:#0b8aac;fill-opacity:1;stroke:#0b8aac;stroke-width:0.49601939px;stroke-linecap:butt;stroke-linejoin:miter;stroke-opacity:1"
       d="m 382.44694,907.58925 q 0,0.0716 -0.0359,0.12543 -0.0358,0.0448 -0.11646,0.0806 -0.0806,0.0359 -0.22399,0.0538 -0.14334,0.0179 -0.35837,0.0179 -0.22399,0 -0.36733,-0.0179 -0.14334,-0.0179 -0.22398,-0.0538 -0.0807,-0.0359 -0.11647,-0.0806 -0.0359,-0.0537 -0.0359,-0.12543 l 0,-4.72157 q 0,-0.68987 -0.1075,-1.11096 -0.10752,-0.42109 -0.31357,-0.7257 -0.2061,-0.30462 -0.53757,-0.46589 -0.32255,-0.16126 -0.7526,-0.16126 -0.55549,0 -1.11094,0.39421 -0.55549,0.3942 -1.16472,1.15575 l 0,5.63542 q 0,0.0716 -0.0359,0.12543 -0.0359,0.0448 -0.11646,0.0806 -0.0806,0.0359 -0.22399,0.0538 -0.14334,0.0179 -0.36732,0.0179 -0.21504,0 -0.35838,-0.0179 -0.14337,-0.0179 -0.23296,-0.0538 -0.0806,-0.0359 -0.11646,-0.0806 -0.027,-0.0537 -0.027,-0.12543 l 0,-8.06341 q 0,-0.0716 0.027,-0.11646 0.027,-0.0537 0.10751,-0.0896 0.0806,-0.0448 0.20606,-0.0538 0.12545,-0.0179 0.3315,-0.0179 0.19712,0 0.32253,0.0179 0.13439,0.009 0.20609,0.0538 0.0716,0.0359 0.0985,0.0896 0.0359,0.0448 0.0359,0.11646 l 0,1.06617 q 0.6809,-0.76155 1.35286,-1.11096 0.68089,-0.35837 1.37077,-0.35837 0.80635,0 1.35285,0.27774 0.55549,0.26878 0.89594,0.72571 0.34046,0.45692 0.4838,1.07512 0.15231,0.60923 0.15231,1.46933 l 0,4.91867 z" /><path
       inkscape:connector-curvature="0"
       id="path4408"
       style="font-style:normal;font-variant:normal;font-weight:normal;font-stretch:normal;font-size:medium;line-height:125%;font-family:Calibri;-inkscape-font-specification:Calibri;letter-spacing:0px;word-spacing:0px;fill:#0b8aac;fill-opacity:1;stroke:#0b8aac;stroke-width:0.49601939px;stroke-linecap:butt;stroke-linejoin:miter;stroke-opacity:1"
       d="m 388.49449,907.81324 -1.07513,2.96554 q -0.0537,0.14335 -0.27773,0.21502 -0.21503,0.0806 -0.66297,0.0806 -0.23297,0 -0.3763,-0.0269 -0.14337,-0.0179 -0.22399,-0.0716 -0.0716,-0.0537 -0.0807,-0.14335 -0.009,-0.0896 0.0448,-0.21502 l 1.11097,-2.80427 q -0.0806,-0.0359 -0.15232,-0.11648 -0.0716,-0.0806 -0.0985,-0.17022 l -2.87596,-7.70503 q -0.0717,-0.18815 -0.0717,-0.29566 0,-0.10752 0.0717,-0.17023 0.0716,-0.0627 0.23294,-0.0806 0.16126,-0.0269 0.43005,-0.0269 0.26877,0 0.42108,0.0179 0.15233,0.009 0.24192,0.0448 0.0896,0.0359 0.12541,0.10751 0.0448,0.0627 0.0896,0.17919 l 2.30257,6.46864 0.0267,0 2.22192,-6.50448 q 0.0537,-0.17022 0.12541,-0.21502 0.0806,-0.0537 0.23296,-0.0716 0.15229,-0.0269 0.43899,-0.0269 0.25086,0 0.41213,0.0269 0.16129,0.0179 0.23296,0.0806 0.0806,0.0627 0.0806,0.17022 0,0.10752 -0.0537,0.26878 l -2.89388,8.01861 z" /></g></svg>