<?xml version="1.0" encoding="UTF-8" standalone="no"?>
<svg
   xmlns:dc="http://purl.org/dc/elements/1.1/"
   xmlns:cc="http://creativecommons.org/ns#"
   xmlns:rdf="http://www.w3.org/1999/02/22-rdf-syntax-ns#"
   xmlns:svg="http://www.w3.org/2000/svg"
   xmlns="http://www.w3.org/2000/svg"
   viewBox="0 0 150 196"
   height="196"
   width="150"
   xml:space="preserve"
   version="1.1"
   id="svg2"><metadata
     id="metadata8"><rdf:RDF><cc:Work
         rdf:about=""><dc:format>image/svg+xml</dc:format><dc:type
           rdf:resource="http://purl.org/dc/dcmitype/StillImage" /><dc:title></dc:title></cc:Work></rdf:RDF></metadata><defs
     id="defs6"><clipPath
       id="clipPath16"
       clipPathUnits="userSpaceOnUse"><path
         id="path18"
         d="M 0.502,0 1024,0 l 0,768 -1023.498,0 0,-768 z" /></clipPath><clipPath
       id="clipPath30"
       clipPathUnits="userSpaceOnUse"><path
         id="path32"
         d="M 0,768 1024,768 1024,0 0,0 0,768 Z" /></clipPath><clipPath
       id="clipPath38"
       clipPathUnits="userSpaceOnUse"><path
         id="path40"
         d="m 785.918,256.521 256.842,0 0,-285.3126 -256.842,0 0,285.3126 z" /></clipPath><clipPath
       id="clipPath4271"
       clipPathUnits="userSpaceOnUse"><rect
         y="-525.28528"
         x="139.90915"
         height="526.48639"
         width="597.13367"
         id="rect4273"
         style="fill:#000000;fill-opacity:0.11764706;stroke:none;stroke-width:30;stroke-linecap:square;stroke-linejoin:round;stroke-miterlimit:4;stroke-dasharray:none;stroke-opacity:1" /></clipPath></defs><g
     transform="matrix(1.25,0,0,-1.25,-48.842419,195.99998)"
     id="g10" /><g
     transform="translate(-48.842419,-764.00002)"
     id="layer1"><path
       id="path4281"
       d="m 79.361546,960.00002 119.480874,0 0,-156.60307 -12.95195,-9.20205 0,34.33444 0,6.56905 c -6.45807,-3.40932 -13.64912,-5.19726 -20.95187,-5.20769 -24.86186,-3.1e-4 -45.01703,20.15484 -45.01672,45.0167 -3.1e-4,24.86187 20.15486,45.01703 45.01672,45.01672 6.83362,-0.0115 13.57365,-1.58028 19.71162,-4.58421 -3.64903,16.9899 -15.63999,31.44576 -39.49503,31.44576 -18.41456,0 -31.0183,-4.32586 -42.47789,-23.55124 l -23.315754,36.76559 z"
       style="fill:#017c78;fill-opacity:1;stroke:none;stroke-width:30;stroke-linecap:square;stroke-linejoin:round;stroke-miterlimit:4;stroke-dasharray:none;stroke-opacity:1" /><path
       id="path4275"
       d="m 121.56232,767.76978 c -5.77622,0.04 -11.90931,0.48824 -18.61527,1.48735 -29.192503,4.34931 -51.957128,19.887 -51.957128,59.21226 l 0,106.23807 29.408231,20.8922 0,-34.33544 0,-6.56757 c 6.458079,3.40933 13.648626,5.19628 20.951377,5.20673 24.86186,3e-4 45.01646,-20.1543 45.01616,-45.01617 3e-4,-24.86188 -20.1543,-45.01648 -45.01616,-45.01618 -6.833627,0.0115 -13.574962,1.57848 -19.71295,4.58242 3.64905,-16.98992 15.621196,-31.4444 39.49525,-31.4444 18.51733,0 31.0185,4.32528 42.47809,23.55066 l 30.38959,-47.9215 c -28.62722,-7.67063 -47.4069,-11.0415 -72.43719,-10.86843 z"
       style="fill:#169ae7;fill-opacity:1;stroke:none;stroke-width:30;stroke-linecap:square;stroke-linejoin:round;stroke-miterlimit:4;stroke-dasharray:none;stroke-opacity:1" /></g></svg>